<?xml version="1.0" ?><!DOCTYPE svg  PUBLIC '-//W3C//DTD SVG 1.1//EN'  'http://www.w3.org/Graphics/SVG/1.1/DTD/svg11.dtd'><svg height="16px" style="enable-background:new 0 0 16 16;" version="1.1" viewBox="0 0 16 16" width="16px" xml:space="preserve" xmlns="http://www.w3.org/2000/svg" xmlns:xlink="http://www.w3.org/1999/xlink"><g id="_x31_4-document_-_file_blank" style="enable-background:new    ;"><path d="M11-0.002H2.5C2.224-0.002,2,0.223,2,0.499v14.999c0,0.277,0.224,0.501,0.5,0.501h12c0.275,0,0.5-0.224,0.5-0.501v-11.5   L11-0.002z M11,1.812l2.188,2.187H11V1.812z M14,14.498c0,0.276-0.225,0.5-0.5,0.5h-10c-0.276,0-0.5-0.224-0.5-0.5v-13   c0-0.275,0.224-0.499,0.5-0.499H10v2.999v1.001h1h3V14.498z"/></g><g id="Layer_1"/></svg>