<?xml version="1.0" encoding="UTF-8" standalone="no"?>
<svg width="105px" height="104px" viewBox="0 0 105 104" version="1.1" xmlns="http://www.w3.org/2000/svg" xmlns:xlink="http://www.w3.org/1999/xlink">
    <!-- Generator: Sketch 39.1 (31720) - http://www.bohemiancoding.com/sketch -->
    <title>Page 1</title>
    <desc>Created with Sketch.</desc>
    <defs></defs>
    <g id="Page-1" stroke="none" stroke-width="1" fill="none" fill-rule="evenodd">
        <g transform="translate(0.000000, -1.000000)">
            <polygon id="Fill-1" fill="#221F20" points="78.336 11.832 81.6 11.832 81.6 8.568 78.336 8.568"></polygon>
            <polygon id="Fill-2" fill="#221F20" points="84.864 18.36 88.128 18.36 88.128 15.096 84.864 15.096"></polygon>
            <polygon id="Fill-3" fill="#221F20" points="78.336 24.888 81.6 24.888 81.6 21.624 78.336 21.624"></polygon>
            <polygon id="Fill-4" fill="#221F20" points="78.336 18.36 81.6 18.36 81.6 15.096 78.336 15.096"></polygon>
            <polygon id="Fill-5" fill="#221F20" points="91.392 73.848 94.656 73.848 94.656 70.584 91.392 70.584"></polygon>
            <polygon id="Fill-6" fill="#221F20" points="96.288 73.848 99.552 73.848 99.552 70.584 96.288 70.584"></polygon>
            <polygon id="Fill-7" fill="#221F20" points="91.392 68.952 94.656 68.952 94.656 65.688 91.392 65.688"></polygon>
            <polygon id="Fill-8" fill="#221F20" points="96.288 68.952 99.552 68.952 99.552 65.688 96.288 65.688"></polygon>
            <polygon id="Fill-9" fill="#221F20" points="91.392 64.056 94.656 64.056 94.656 60.792 91.392 60.792"></polygon>
            <polygon id="Fill-10" fill="#221F20" points="96.288 64.056 99.552 64.056 99.552 60.792 96.288 60.792"></polygon>
            <polygon id="Fill-11" fill="#221F20" points="91.392 59.16 94.656 59.16 94.656 55.896 91.392 55.896"></polygon>
            <polygon id="Fill-12" fill="#221F20" points="96.288 59.16 99.552 59.16 99.552 55.896 96.288 55.896"></polygon>
            <path d="M78.336,102.408 L19.584,102.408 C15.078,102.408 11.424,98.754 11.424,94.248 L11.424,13.464 L70.176,13.464 L70.176,91.8 L78.336,102.408 Z M94.656,50.184 L70.176,50.184 L70.176,94.248 C70.176,98.754 73.83,102.408 78.336,102.408 C82.842,102.408 86.496,98.754 86.496,94.248 L86.496,59.976 L94.656,50.184 Z M94.656,50.184 L94.656,50.184 C90.15,50.184 86.496,53.838 86.496,58.344 L86.496,78.744 L102.816,78.744 L102.816,58.344 C102.816,53.838 99.162,50.184 94.656,50.184 L94.656,50.184 Z M44.88,43.656 C44.88,50.866 39.034,56.712 31.824,56.712 C24.614,56.712 18.768,50.866 18.768,43.656 C18.768,36.446 24.614,30.6 31.824,30.6 C39.034,30.6 44.88,36.446 44.88,43.656 L44.88,43.656 Z M40.8,53.448 L48.144,60.792 L40.8,53.448 Z" id="Stroke-13" stroke="#221F20" stroke-width="3.264" stroke-linejoin="round"></path>
            <polygon id="Stroke-15" stroke="#221F20" stroke-width="3.264" stroke-linejoin="round" points="44.8796 64.0554 51.4076 57.5274 66.0956 72.2154 59.5676 78.7434"></polygon>
            <polyline id="Stroke-16" stroke="#221F20" stroke-width="3.264" stroke-linejoin="round" points="29.376 43.656 29.376 38.76 35.904 38.76 35.904 42.84 32.64 46.104 32.64 50.184"></polyline>
            <polygon id="Fill-17" fill="#221F20" points="31.008 53.448 34.272 53.448 34.272 50.184 31.008 50.184"></polygon>
            <path d="M47.328,35.496 L65.28,35.496 M47.328,22.44 L65.28,22.44 M47.328,42.024 L65.28,42.024 M47.328,48.552 L65.28,48.552 M17.952,66.504 L32.64,66.504 M17.952,73.032 L45.696,73.032 M39.168,28.968 L65.28,28.968 M17.952,79.56 L32.64,79.56 M35.904,79.56 L50.592,79.56 M17.952,86.088 L24.48,86.088 M45.696,86.088 L65.28,86.088 M53.856,92.616 L65.28,92.616 M17.952,92.616 L32.64,92.616 M27.744,86.088 L42.432,86.088 M37.536,22.44 L44.064,22.44 M16.32,28.968 L22.848,28.968 M16.32,22.44 L34.272,22.44 M35.904,92.616 L50.592,92.616 M4.896,1.224 L4.896,11.016 M9.792,6.12 L0,6.12" id="Stroke-18" stroke="#221F20" stroke-width="3.264" stroke-linejoin="round"></path>
        </g>
    </g>
</svg>