<svg xmlns="http://www.w3.org/2000/svg" viewBox="0 0 444 294"><defs><style>.a{fill:#fff;}.b{fill:#0c0c15;}.c{fill:#feffff;}.d{fill:#010101;}.e{fill:none;stroke:#0c0c15;stroke-linecap:round;stroke-linejoin:round;stroke-width:2px;}</style></defs><title>illustration</title><rect class="a" x="23" y="173" width="32" height="32"/><path class="b" d="M230,367H198a1,1,0,0,1-1-1V334a1,1,0,0,1,1-1h32a1,1,0,0,1,1,1v32A1,1,0,0,1,230,367Zm-31-2h30V335H199v30Z" transform="translate(-175 -161)"/><rect class="a" x="111" y="149" width="100" height="4"/><rect class="a" x="143" y="61" width="84" height="4"/><path class="b" d="M402,303H318a1,1,0,0,1-1-1V222a1,1,0,0,1,1-1h84a1,1,0,0,1,1,1v80A1,1,0,0,1,402,303Zm-83-2h82V223H319v78Z" transform="translate(-175 -161)"/><path class="b" d="M402,227H318a1,1,0,0,1,0-2h84A1,1,0,0,1,402,227Z" transform="translate(-175 -161)"/><path d="M334,235h-8a1,1,0,0,1,0-2h8A1,1,0,0,1,334,235Z" transform="translate(-175 -161)"/><path class="b" d="M354,235H338a1,1,0,0,1,0-2h16A1,1,0,0,1,354,235Z" transform="translate(-175 -161)"/><path d="M362,235h-4a1,1,0,0,1,0-2h4A1,1,0,0,1,362,235Z" transform="translate(-175 -161)"/><path d="M378,235H366a1,1,0,0,1,0-2h12A1,1,0,0,1,378,235Z" transform="translate(-175 -161)"/><path d="M346,239H330a1,1,0,0,1,0-2h16A1,1,0,0,1,346,239Z" transform="translate(-175 -161)"/><path class="b" d="M354,243H330a1,1,0,0,1,0-2h24A1,1,0,0,1,354,243Z" transform="translate(-175 -161)"/><path d="M338,247h-8a1,1,0,0,1,0-2h8A1,1,0,0,1,338,247Z" transform="translate(-175 -161)"/><path class="b" d="M362,247H342a1,1,0,0,1,0-2h20A1,1,0,0,1,362,247Z" transform="translate(-175 -161)"/><path class="a" d="M394,235H382a1,1,0,0,1,0-2h12A1,1,0,0,1,394,235Z" transform="translate(-175 -161)"/><path class="b" d="M334,259h-8a1,1,0,0,1,0-2h8A1,1,0,0,1,334,259Z" transform="translate(-175 -161)"/><path class="a" d="M348,259H338a1,1,0,0,1,0-2h10A1,1,0,0,1,348,259Z" transform="translate(-175 -161)"/><path class="b" d="M366,259H352a1,1,0,0,1,0-2h14A1,1,0,0,1,366,259Z" transform="translate(-175 -161)"/><path d="M374,259h-4a1,1,0,0,1,0-2h4A1,1,0,0,1,374,259Z" transform="translate(-175 -161)"/><path class="b" d="M342,263H330a1,1,0,0,1,0-2h12A1,1,0,0,1,342,263Z" transform="translate(-175 -161)"/><path d="M354,267H330a1,1,0,0,1,0-2h24A1,1,0,0,1,354,267Z" transform="translate(-175 -161)"/><path d="M338,271h-8a1,1,0,0,1,0-2h8A1,1,0,0,1,338,271Z" transform="translate(-175 -161)"/><path class="b" d="M362,271H342a1,1,0,0,1,0-2h20A1,1,0,0,1,362,271Z" transform="translate(-175 -161)"/><path class="b" d="M394,259H378a1,1,0,0,1,0-2h16A1,1,0,0,1,394,259Z" transform="translate(-175 -161)"/><path d="M370,271h-4a1,1,0,0,1,0-2h4A1,1,0,0,1,370,271Z" transform="translate(-175 -161)"/><path class="b" d="M334,283h-8a1,1,0,0,1,0-2h8A1,1,0,0,1,334,283Z" transform="translate(-175 -161)"/><path class="b" d="M354,283H338a1,1,0,0,1,0-2h16A1,1,0,0,1,354,283Z" transform="translate(-175 -161)"/><path d="M362,283h-4a1,1,0,0,1,0-2h4A1,1,0,0,1,362,283Z" transform="translate(-175 -161)"/><path class="a" d="M378,283H366a1,1,0,0,1,0-2h12A1,1,0,0,1,378,283Z" transform="translate(-175 -161)"/><path d="M346,287H330a1,1,0,0,1,0-2h16A1,1,0,0,1,346,287Z" transform="translate(-175 -161)"/><path class="b" d="M354,291H330a1,1,0,0,1,0-2h24A1,1,0,0,1,354,291Z" transform="translate(-175 -161)"/><path d="M338,295h-8a1,1,0,0,1,0-2h8A1,1,0,0,1,338,295Z" transform="translate(-175 -161)"/><path class="b" d="M362,295H342a1,1,0,0,1,0-2h20A1,1,0,0,1,362,295Z" transform="translate(-175 -161)"/><path class="b" d="M394,283H382a1,1,0,0,1,0-2h12A1,1,0,0,1,394,283Z" transform="translate(-175 -161)"/><path class="b" d="M578,303H502a1,1,0,0,1-1-1V258a1,1,0,0,1,1-1h76a1,1,0,0,1,1,1v44A1,1,0,0,1,578,303Zm-75-2h74V259H503v42Z" transform="translate(-175 -161)"/><path class="b" d="M560,295a1,1,0,0,1-1-1,19,19,0,0,0-38,0,1,1,0,0,1-2,0,21,21,0,0,1,42,0A1,1,0,0,1,560,295Z" transform="translate(-175 -161)"/><path class="b" d="M560,295H520a1,1,0,0,1,0-2h40A1,1,0,0,1,560,295Z" transform="translate(-175 -161)"/><path class="b" d="M542,295a1,1,0,0,1-1-1,1,1,0,0,0-2,0,1,1,0,0,1-2,0,3,3,0,0,1,6,0A1,1,0,0,1,542,295Z" transform="translate(-175 -161)"/><path class="b" d="M540,295a1,1,0,0,1-.71-1.71l8-8a1,1,0,0,1,1.41,1.41l-8,8A1,1,0,0,1,540,295Z" transform="translate(-175 -161)"/><path class="b" d="M544.14,279.55a1,1,0,0,1-.71-1.71,1,1,0,0,1,1.42,0,1,1,0,0,1,.29.71,1,1,0,0,1-.29.7A1,1,0,0,1,544.14,279.55Z" transform="translate(-175 -161)"/><path class="b" d="M548,281.15a1,1,0,0,1-.71-0.3,1,1,0,0,1-.29-0.7,1,1,0,0,1,.29-0.71,1,1,0,0,1,1.42,0,1,1,0,0,1,0,1.41A1,1,0,0,1,548,281.15Z" transform="translate(-175 -161)"/><path class="b" d="M551.31,283.69a1,1,0,0,1-1-1,1,1,0,0,1,.3-0.71,1,1,0,0,1,1.41,0,1,1,0,0,1,.29.71,1,1,0,0,1-.29.7A1,1,0,0,1,551.31,283.69Z" transform="translate(-175 -161)"/><path class="b" d="M553.86,287a1,1,0,0,1-.71-0.29,1,1,0,0,1-.29-0.71,1,1,0,0,1,.29-0.71,1,1,0,0,1,1.41,0A1,1,0,0,1,553.86,287Z" transform="translate(-175 -161)"/><path class="b" d="M555.46,290.86a1,1,0,0,1-1-1,1,1,0,0,1,.29-0.71,1,1,0,0,1,1.41,0,1,1,0,0,1,.3.71A1,1,0,0,1,555.46,290.86Z" transform="translate(-175 -161)"/><path class="b" d="M524.54,290.86a1,1,0,0,1-1-1,1,1,0,0,1,.3-0.71,1,1,0,0,1,1.41,0A1,1,0,0,1,524.54,290.86Z" transform="translate(-175 -161)"/><path class="b" d="M526.14,287a1,1,0,0,1-.7-1.71,1,1,0,0,1,1.41,0,1,1,0,0,1,0,1.42A1.05,1.05,0,0,1,526.14,287Z" transform="translate(-175 -161)"/><path class="b" d="M528.69,283.69a1,1,0,0,1-.71-0.3,1,1,0,0,1-.29-0.7A1,1,0,0,1,528,282a1,1,0,0,1,1.41,0,1,1,0,0,1,.3.71A1,1,0,0,1,528.69,283.69Z" transform="translate(-175 -161)"/><path class="b" d="M532,281.14a1,1,0,0,1-.71-0.29,1,1,0,0,1-.29-0.71,1,1,0,0,1,.29-0.7,1,1,0,0,1,1.42,0,1,1,0,0,1,.29.7,1,1,0,0,1-.29.71A1,1,0,0,1,532,281.14Z" transform="translate(-175 -161)"/><path class="b" d="M535.86,279.55a1,1,0,0,1-.71-1.71,1,1,0,0,1,1.71.71A1,1,0,0,1,535.86,279.55Z" transform="translate(-175 -161)"/><path class="b" d="M540,279a1.05,1.05,0,0,1-.71-0.29A1,1,0,0,1,539,278a1,1,0,1,1,2,0A1,1,0,0,1,540,279Z" transform="translate(-175 -161)"/><path class="b" d="M572,267a3,3,0,1,1,3-3A3,3,0,0,1,572,267Zm0-4a1,1,0,1,0,1,1A1,1,0,0,0,572,263Z" transform="translate(-175 -161)"/><path class="b" d="M564,267a3,3,0,1,1,3-3A3,3,0,0,1,564,267Zm0-4a1,1,0,1,0,1,1A1,1,0,0,0,564,263Z" transform="translate(-175 -161)"/><path class="b" d="M556,267a3,3,0,1,1,3-3A3,3,0,0,1,556,267Zm0-4a1,1,0,1,0,1,1A1,1,0,0,0,556,263Z" transform="translate(-175 -161)"/><path class="b" d="M548,267a3,3,0,1,1,3-3A3,3,0,0,1,548,267Zm0-4a1,1,0,1,0,1,1A1,1,0,0,0,548,263Z" transform="translate(-175 -161)"/><path class="b" d="M540,267a3,3,0,1,1,3-3A3,3,0,0,1,540,267Zm0-4a1,1,0,1,0,1,1A1,1,0,0,0,540,263Z" transform="translate(-175 -161)"/><path class="b" d="M532,267a3,3,0,1,1,3-3A3,3,0,0,1,532,267Zm0-4a1,1,0,1,0,1,1A1,1,0,0,0,532,263Z" transform="translate(-175 -161)"/><path class="b" d="M524,267a3,3,0,1,1,3-3A3,3,0,0,1,524,267Zm0-4a1,1,0,1,0,1,1A1,1,0,0,0,524,263Z" transform="translate(-175 -161)"/><path class="b" d="M516,267a3,3,0,1,1,3-3A3,3,0,0,1,516,267Zm0-4a1,1,0,1,0,1,1A1,1,0,0,0,516,263Z" transform="translate(-175 -161)"/><path class="b" d="M508,267a3,3,0,1,1,3-3A3,3,0,0,1,508,267Zm0-4a1,1,0,1,0,1,1A1,1,0,0,0,508,263Z" transform="translate(-175 -161)"/><path class="b" d="M526,259H510a1,1,0,0,1-1-1v-4a1,1,0,0,1,1-1h16a1,1,0,0,1,1,1v4A1,1,0,0,1,526,259Zm-15-2h14v-2H511v2Z" transform="translate(-175 -161)"/><path class="b" d="M548,259H532a1,1,0,0,1-1-1v-4a1,1,0,0,1,1-1h16a1,1,0,0,1,1,1v4A1,1,0,0,1,548,259Zm-15-2h14v-2H533v2Z" transform="translate(-175 -161)"/><path class="b" d="M570,259H554a1,1,0,0,1-1-1v-4a1,1,0,0,1,1-1h16a1,1,0,0,1,1,1v4A1,1,0,0,1,570,259Zm-15-2h14v-2H555v2Z" transform="translate(-175 -161)"/><path class="b" d="M524,255a1,1,0,0,1-1-1V230a5,5,0,0,0-10,0v24a1,1,0,0,1-2,0V230a7,7,0,0,1,14,0v24A1,1,0,0,1,524,255Z" transform="translate(-175 -161)"/><path class="b" d="M516,255a1,1,0,0,1-1-1V230a1,1,0,0,1,2,0v24A1,1,0,0,1,516,255Z" transform="translate(-175 -161)"/><path class="b" d="M520,255a1,1,0,0,1-1-1V230a1,1,0,0,1,2,0v24A1,1,0,0,1,520,255Z" transform="translate(-175 -161)"/><path class="b" d="M520,231h-4a1,1,0,0,1,0-2h4A1,1,0,0,1,520,231Z" transform="translate(-175 -161)"/><path class="b" d="M523,222.34a1,1,0,0,1-.87-1.5l1-1.73a1,1,0,1,1,1.73,1l-1,1.73A1,1,0,0,1,523,222.34Z" transform="translate(-175 -161)"/><path class="b" d="M513,222.34a1,1,0,0,1-.87-0.5l-1-1.73a1,1,0,0,1,1.73-1l1,1.73A1,1,0,0,1,513,222.34Z" transform="translate(-175 -161)"/><path class="b" d="M518,221a1,1,0,0,1-1-1v-2a1,1,0,0,1,2,0v2A1,1,0,0,1,518,221Z" transform="translate(-175 -161)"/><path class="b" d="M523,222.34a1,1,0,0,1-.87-1.5l1-1.73a1,1,0,1,1,1.73,1l-1,1.73A1,1,0,0,1,523,222.34Z" transform="translate(-175 -161)"/><path class="b" d="M546,255a1,1,0,0,1-1-1V230a5,5,0,0,0-10,0v24a1,1,0,0,1-2,0V230a7,7,0,0,1,14,0v24A1,1,0,0,1,546,255Z" transform="translate(-175 -161)"/><path class="b" d="M538,255a1,1,0,0,1-1-1V230a1,1,0,0,1,2,0v24A1,1,0,0,1,538,255Z" transform="translate(-175 -161)"/><path class="b" d="M542,255a1,1,0,0,1-1-1V230a1,1,0,0,1,2,0v24A1,1,0,0,1,542,255Z" transform="translate(-175 -161)"/><path class="b" d="M542,231h-4a1,1,0,0,1,0-2h4A1,1,0,0,1,542,231Z" transform="translate(-175 -161)"/><path class="b" d="M545,222.34a1,1,0,0,1-.87-1.5l1-1.73a1,1,0,1,1,1.73,1l-1,1.73A1,1,0,0,1,545,222.34Z" transform="translate(-175 -161)"/><path class="b" d="M535,222.34a1,1,0,0,1-.87-0.5l-1-1.73a1,1,0,0,1,1.73-1l1,1.73A1,1,0,0,1,535,222.34Z" transform="translate(-175 -161)"/><path class="b" d="M540,221a1,1,0,0,1-1-1v-2a1,1,0,0,1,2,0v2A1,1,0,0,1,540,221Z" transform="translate(-175 -161)"/><path class="b" d="M545,222.34a1,1,0,0,1-.87-1.5l1-1.73a1,1,0,1,1,1.73,1l-1,1.73A1,1,0,0,1,545,222.34Z" transform="translate(-175 -161)"/><path class="b" d="M568,255a1,1,0,0,1-1-1V230a5,5,0,0,0-10,0v24a1,1,0,0,1-2,0V230a7,7,0,0,1,14,0v24A1,1,0,0,1,568,255Z" transform="translate(-175 -161)"/><path class="b" d="M560,255a1,1,0,0,1-1-1V230a1,1,0,0,1,2,0v24A1,1,0,0,1,560,255Z" transform="translate(-175 -161)"/><path class="b" d="M564,255a1,1,0,0,1-1-1V230a1,1,0,0,1,2,0v24A1,1,0,0,1,564,255Z" transform="translate(-175 -161)"/><path class="b" d="M564,231h-4a1,1,0,0,1,0-2h4A1,1,0,0,1,564,231Z" transform="translate(-175 -161)"/><path class="b" d="M567,222.34a1,1,0,0,1-.87-1.5l1-1.73a1,1,0,1,1,1.73,1l-1,1.73A1,1,0,0,1,567,222.34Z" transform="translate(-175 -161)"/><path class="b" d="M557,222.34a1,1,0,0,1-.87-0.5l-1-1.73a1,1,0,0,1,1.73-1l1,1.73A1,1,0,0,1,557,222.34Z" transform="translate(-175 -161)"/><path class="b" d="M562,221a1,1,0,0,1-1-1v-2a1,1,0,0,1,2,0v2A1,1,0,0,1,562,221Z" transform="translate(-175 -161)"/><path class="b" d="M567,222.34a1,1,0,0,1-.87-1.5l1-1.73a1,1,0,1,1,1.73,1l-1,1.73A1,1,0,0,1,567,222.34Z" transform="translate(-175 -161)"/><rect class="a" x="91" y="69" width="40" height="60"/><path class="b" d="M306,303H266a5,5,0,0,1-5-5V226a5,5,0,0,1,5-5h40a5,5,0,0,1,5,5v72A5,5,0,0,1,306,303Zm-40-80a3,3,0,0,0-3,3v72a3,3,0,0,0,3,3h40a3,3,0,0,0,3-3V226a3,3,0,0,0-3-3H266Z" transform="translate(-175 -161)"/><path class="b" d="M306,291H266a1,1,0,0,1-1-1V230a1,1,0,0,1,1-1h40a1,1,0,0,1,1,1v60A1,1,0,0,1,306,291Zm-39-2h38V231H267v58Z" transform="translate(-175 -161)"/><path class="b" d="M286,299a3,3,0,1,1,3-3A3,3,0,0,1,286,299Zm0-4a1,1,0,1,0,1,1A1,1,0,0,0,286,295Z" transform="translate(-175 -161)"/><path class="b" d="M290,227h-8a1,1,0,0,1,0-2h8A1,1,0,0,1,290,227Z" transform="translate(-175 -161)"/><path class="b" d="M277,243h-6a2,2,0,0,1-2-2v-6a2,2,0,0,1,2-2h6a2,2,0,0,1,2,2v6A2,2,0,0,1,277,243Zm0-2v0h0Zm-6-6v6h6v-6h-6Z" transform="translate(-175 -161)"/><path class="b" d="M289,243h-6a2,2,0,0,1-2-2v-6a2,2,0,0,1,2-2h6a2,2,0,0,1,2,2v6A2,2,0,0,1,289,243Zm0-2v0h0Zm-6-6v6h6v-6h-6Z" transform="translate(-175 -161)"/><path class="b" d="M301,243h-6a2,2,0,0,1-2-2v-6a2,2,0,0,1,2-2h6a2,2,0,0,1,2,2v6A2,2,0,0,1,301,243Zm0-2v0h0Zm-6-6v6h6v-6h-6Z" transform="translate(-175 -161)"/><path class="b" d="M277,255h-6a2,2,0,0,1-2-2v-6a2,2,0,0,1,2-2h6a2,2,0,0,1,2,2v6A2,2,0,0,1,277,255Zm0-2v0h0Zm-6-6v6h6v-6h-6Z" transform="translate(-175 -161)"/><path class="b" d="M289,255h-6a2,2,0,0,1-2-2v-6a2,2,0,0,1,2-2h6a2,2,0,0,1,2,2v6A2,2,0,0,1,289,255Zm0-2v0h0Zm-6-6v6h6v-6h-6Z" transform="translate(-175 -161)"/><path class="b" d="M301,255h-6a2,2,0,0,1-2-2v-6a2,2,0,0,1,2-2h6a2,2,0,0,1,2,2v6A2,2,0,0,1,301,255Zm0-2v0h0Zm-6-6v6h6v-6h-6Z" transform="translate(-175 -161)"/><path class="b" d="M277,267h-6a2,2,0,0,1-2-2v-6a2,2,0,0,1,2-2h6a2,2,0,0,1,2,2v6A2,2,0,0,1,277,267Zm0-2v0h0Zm-6-6v6h6v-6h-6Z" transform="translate(-175 -161)"/><path class="b" d="M289,267h-6a2,2,0,0,1-2-2v-6a2,2,0,0,1,2-2h6a2,2,0,0,1,2,2v6A2,2,0,0,1,289,267Zm0-2v0h0Zm-6-6v6h6v-6h-6Z" transform="translate(-175 -161)"/><path class="b" d="M301,267h-6a2,2,0,0,1-2-2v-6a2,2,0,0,1,2-2h6a2,2,0,0,1,2,2v6A2,2,0,0,1,301,267Zm0-2v0h0Zm-6-6v6h6v-6h-6Z" transform="translate(-175 -161)"/><path class="b" d="M277,287h-6a2,2,0,0,1-2-2v-6a2,2,0,0,1,2-2h6a2,2,0,0,1,2,2v6A2,2,0,0,1,277,287Zm0-2v0h0Zm-6-6v6h6v-6h-6Z" transform="translate(-175 -161)"/><path class="b" d="M289,287h-6a2,2,0,0,1-2-2v-6a2,2,0,0,1,2-2h6a2,2,0,0,1,2,2v6A2,2,0,0,1,289,287Zm0-2v0h0Zm-6-6v6h6v-6h-6Z" transform="translate(-175 -161)"/><path class="b" d="M301,287h-6a2,2,0,0,1-2-2v-6a2,2,0,0,1,2-2h6a2,2,0,0,1,2,2v6A2,2,0,0,1,301,287Zm0-2v0h0Zm-6-6v6h6v-6h-6Z" transform="translate(-175 -161)"/><path class="b" d="M232,227a1,1,0,0,1-1-1V210a1,1,0,0,1,2,0v16A1,1,0,0,1,232,227Z" transform="translate(-175 -161)"/><path class="b" d="M282,219a1,1,0,0,1-1-1v-8a1,1,0,0,1,2,0v8A1,1,0,0,1,282,219Z" transform="translate(-175 -161)"/><path class="b" d="M232,211a1,1,0,0,1-1-1,9,9,0,0,1,9-9,1,1,0,0,1,0,2,7,7,0,0,0-7,7A1,1,0,0,1,232,211Z" transform="translate(-175 -161)"/><path class="b" d="M282,211a1,1,0,0,1-1-1,7,7,0,0,0-7-7,1,1,0,0,1,0-2,9,9,0,0,1,9,9A1,1,0,0,1,282,211Z" transform="translate(-175 -161)"/><path class="b" d="M274,203H240a1,1,0,0,1,0-2h34A1,1,0,0,1,274,203Z" transform="translate(-175 -161)"/><path class="b" d="M386,407H286a1,1,0,0,1-1-1V310a1,1,0,0,1,1-1H386a1,1,0,0,1,1,1v96A1,1,0,0,1,386,407Zm-99-2h98V311H287v94Z" transform="translate(-175 -161)"/><rect class="c" x="255" y="249" width="40" height="4"/><rect class="a" x="223" y="153" width="104" height="64"/><rect class="a" x="283" y="173" width="28" height="4"/><path class="d" d="M486,339H438a1,1,0,0,1,0-2h48A1,1,0,0,1,486,339Z" transform="translate(-175 -161)"/><path class="d" d="M486,371H438a1,1,0,0,1-1-1V334a1,1,0,0,1,1-1h48a1,1,0,0,1,1,1v36A1,1,0,0,1,486,371Zm-47-2h46V335H439v34Z" transform="translate(-175 -161)"/><rect class="a" x="231" y="169" width="52" height="32"/><rect class="a" x="231" y="165" width="52" height="4"/><path class="d" d="M502,379H398a1,1,0,0,1-1-1V314a1,1,0,0,1,1-1H502a1,1,0,0,1,1,1v64A1,1,0,0,1,502,379Zm-103-2H501V315H399v62Z" transform="translate(-175 -161)"/><path class="d" d="M506,383H394a1,1,0,0,1,0-2H506A1,1,0,0,1,506,383Z" transform="translate(-175 -161)"/><path class="d" d="M502,395H398a5,5,0,0,1-5-5V314a5,5,0,0,1,5-5H502a5,5,0,0,1,5,5v76A5,5,0,0,1,502,395ZM398,311a3,3,0,0,0-3,3v76a3,3,0,0,0,3,3H502a3,3,0,0,0,3-3V314a3,3,0,0,0-3-3H398Z" transform="translate(-175 -161)"/><path class="d" d="M450,391a3,3,0,1,1,3-3A3,3,0,0,1,450,391Zm0-4a1,1,0,1,0,1,1A1,1,0,0,0,450,387Z" transform="translate(-175 -161)"/><path class="d" d="M470,415H430a1,1,0,0,1-1-1v-4a1,1,0,0,1,1-1h40a1,1,0,0,1,1,1v4A1,1,0,0,1,470,415Zm-39-4v2h38v-2" transform="translate(-175 -161)"/><path class="d" d="M436,411h-0.12a1,1,0,0,1-.87-1.12l2-16a1,1,0,1,1,2,.25l-2,16A1,1,0,0,1,436,411Z" transform="translate(-175 -161)"/><path class="d" d="M464,411a1,1,0,0,1-1-.88l-2-16a1,1,0,0,1,2-.25l2,16a1,1,0,0,1-.87,1.12H464Z" transform="translate(-175 -161)"/><path class="d" d="M498,327h-4a1,1,0,0,1-1-1v-4a1,1,0,0,1,1-1h4a1,1,0,0,1,1,1v4A1,1,0,0,1,498,327Zm-3-2h2v-2h-2v2Z" transform="translate(-175 -161)"/><path class="d" d="M498,335h-4a1,1,0,0,1-1-1v-4a1,1,0,0,1,1-1h4a1,1,0,0,1,1,1v4A1,1,0,0,1,498,335Zm-3-2h2v-2h-2v2Z" transform="translate(-175 -161)"/><path class="d" d="M498,343h-4a1,1,0,0,1-1-1v-4a1,1,0,0,1,1-1h4a1,1,0,0,1,1,1v4A1,1,0,0,1,498,343Zm-3-2h2v-2h-2v2Z" transform="translate(-175 -161)"/><path class="d" d="M498,351h-4a1,1,0,0,1-1-1v-4a1,1,0,0,1,1-1h4a1,1,0,0,1,1,1v4A1,1,0,0,1,498,351Zm-3-2h2v-2h-2v2Z" transform="translate(-175 -161)"/><path class="d" d="M502,319H398a1,1,0,0,1,0-2H502A1,1,0,0,1,502,319Z" transform="translate(-175 -161)"/><path class="d" d="M458,363H406a1,1,0,0,1-1-1V326a1,1,0,0,1,1-1h52a1,1,0,0,1,1,1v36A1,1,0,0,1,458,363Zm-51-2h50V327H407v34Z" transform="translate(-175 -161)"/><path class="d" d="M458,331H406a1,1,0,0,1,0-2h52A1,1,0,0,1,458,331Z" transform="translate(-175 -161)"/><path class="d" d="M422,359a13,13,0,1,1,13-13A13,13,0,0,1,422,359Zm0-24a11,11,0,1,0,11,11A11,11,0,0,0,422,335Z" transform="translate(-175 -161)"/><path class="d" d="M422,347a1,1,0,0,1-1-1V334a1,1,0,0,1,2,0v12A1,1,0,0,1,422,347Z" transform="translate(-175 -161)"/><path class="d" d="M422,347a1,1,0,0,1-.55-1.83l10-6.63a1,1,0,1,1,1.11,1.67l-10,6.63A1,1,0,0,1,422,347Z" transform="translate(-175 -161)"/><path class="d" d="M427,357.91a1,1,0,0,1-.91-0.58l-5-10.91a1,1,0,0,1,1.82-.83l5,10.91A1,1,0,0,1,427,357.91Z" transform="translate(-175 -161)"/><path class="d" d="M454,335H438a1,1,0,0,1,0-2h16A1,1,0,0,1,454,335Z" transform="translate(-175 -161)"/><path class="d" d="M454,339H438a1,1,0,0,1,0-2h16A1,1,0,0,1,454,339Z" transform="translate(-175 -161)"/><path class="d" d="M454,359H438a1,1,0,0,1,0-2h16A1,1,0,0,1,454,359Z" transform="translate(-175 -161)"/><path class="d" d="M442,347h-4a1,1,0,0,1-1-1v-4a1,1,0,0,1,1-1h4a1,1,0,0,1,1,1v4A1,1,0,0,1,442,347Zm-3-2h2v-2h-2v2Z" transform="translate(-175 -161)"/><rect class="a" x="287" y="181" width="4" height="4"/><path class="d" d="M466,347h-4a1,1,0,0,1-1-1v-4a1,1,0,0,1,1-1h4a1,1,0,0,1,1,1v4A1,1,0,0,1,466,347Zm-3-2h2v-2h-2v2Z" transform="translate(-175 -161)"/><rect class="a" x="295" y="181" width="4" height="4"/><path class="d" d="M474,347h-4a1,1,0,0,1-1-1v-4a1,1,0,0,1,1-1h4a1,1,0,0,1,1,1v4A1,1,0,0,1,474,347Zm-3-2h2v-2h-2v2Z" transform="translate(-175 -161)"/><rect class="a" x="303" y="181" width="4" height="4"/><path class="d" d="M482,347h-4a1,1,0,0,1-1-1v-4a1,1,0,0,1,1-1h4a1,1,0,0,1,1,1v4A1,1,0,0,1,482,347Zm-3-2h2v-2h-2v2Z" transform="translate(-175 -161)"/><path class="d" d="M482,351H462a1,1,0,0,1,0-2h20A1,1,0,0,1,482,351Z" transform="translate(-175 -161)"/><path class="d" d="M470,355h-8a1,1,0,0,1,0-2h8A1,1,0,0,1,470,355Z" transform="translate(-175 -161)"/><path class="d" d="M478,355h-4a1,1,0,0,1,0-2h4A1,1,0,0,1,478,355Z" transform="translate(-175 -161)"/><path class="d" d="M482,359H462a1,1,0,0,1,0-2h20A1,1,0,0,1,482,359Z" transform="translate(-175 -161)"/><path class="d" d="M482,367.5H442a1,1,0,0,1,0-2h40A1,1,0,0,1,482,367.5Z" transform="translate(-175 -161)"/><path class="d" d="M482,363H462a1,1,0,0,1,0-2h20A1,1,0,0,1,482,363Z" transform="translate(-175 -161)"/><path class="b" d="M386,315H286a1,1,0,0,1,0-2H386A1,1,0,0,1,386,315Z" transform="translate(-175 -161)"/><path class="b" d="M386,331H286a1,1,0,0,1,0-2H386A1,1,0,0,1,386,331Z" transform="translate(-175 -161)"/><path class="b" d="M386,351H286a1,1,0,0,1,0-2H386A1,1,0,0,1,386,351Z" transform="translate(-175 -161)"/><path class="b" d="M350,323H322a1,1,0,0,1,0-2h28A1,1,0,0,1,350,323Z" transform="translate(-175 -161)"/><path class="b" d="M314,367h-8a1,1,0,0,1-1-1v-8a1,1,0,0,1,1-1h8a1,1,0,0,1,1,1v8A1,1,0,0,1,314,367Zm-7-2h6v-6h-6v6Z" transform="translate(-175 -161)"/><path class="b" d="M366,383h-8a1,1,0,0,1-1-1v-8a1,1,0,0,1,1-1h8a1,1,0,0,1,1,1v8A1,1,0,0,1,366,383Zm-7-2h6v-6h-6v6Z" transform="translate(-175 -161)"/><path class="b" d="M314,399h-8a1,1,0,0,1-1-1v-8a1,1,0,0,1,1-1h8a1,1,0,0,1,1,1v8A1,1,0,0,1,314,399Zm-7-2h6v-6h-6v6Z" transform="translate(-175 -161)"/><path class="b" d="M366,359H322a1,1,0,0,1,0-2h44A1,1,0,0,1,366,359Z" transform="translate(-175 -161)"/><path class="b" d="M354,363H322a1,1,0,0,1,0-2h32A1,1,0,0,1,354,363Z" transform="translate(-175 -161)"/><path class="b" d="M362,363h-4a1,1,0,0,1,0-2h4A1,1,0,0,1,362,363Z" transform="translate(-175 -161)"/><path class="b" d="M354,375H306a1,1,0,0,1,0-2h48A1,1,0,0,1,354,375Z" transform="translate(-175 -161)"/><path class="b" d="M346,379H306a1,1,0,0,1,0-2h40A1,1,0,0,1,346,379Z" transform="translate(-175 -161)"/><path class="b" d="M366,391H318a1,1,0,0,1,0-2h48A1,1,0,0,1,366,391Z" transform="translate(-175 -161)"/><path class="b" d="M330,395H318a1,1,0,0,1,0-2h12A1,1,0,0,1,330,395Z" transform="translate(-175 -161)"/><path class="b" d="M356,395H334a1,1,0,0,1,0-2h22A1,1,0,0,1,356,395Z" transform="translate(-175 -161)"/><path class="b" d="M362,367H322a1,1,0,0,1,0-2h40A1,1,0,0,1,362,367Z" transform="translate(-175 -161)"/><path class="b" d="M322,383H306a1,1,0,0,1,0-2h16A1,1,0,0,1,322,383Z" transform="translate(-175 -161)"/><path class="b" d="M350,383H326a1,1,0,0,1,0-2h24A1,1,0,0,1,350,383Z" transform="translate(-175 -161)"/><path class="b" d="M362,399H318a1,1,0,0,1,0-2h44A1,1,0,0,1,362,399Z" transform="translate(-175 -161)"/><path class="b" d="M278,391H190a1,1,0,0,1-1-1V310a1,1,0,0,1,1-1h88a1,1,0,0,1,1,1v80A1,1,0,0,1,278,391Zm-87-2h86V311H191v78Z" transform="translate(-175 -161)"/><path class="b" d="M278,375H190a1,1,0,0,1,0-2h88A1,1,0,0,1,278,375Z" transform="translate(-175 -161)"/><path class="b" d="M278,327H190a1,1,0,0,1,0-2h88A1,1,0,0,1,278,327Z" transform="translate(-175 -161)"/><path class="b" d="M270,343H238a1,1,0,0,1-1-1v-8a1,1,0,0,1,1-1h32a1,1,0,0,1,1,1v8A1,1,0,0,1,270,343Zm-31-2h30v-6H239v6Z" transform="translate(-175 -161)"/><path class="b" d="M270,355H238a1,1,0,0,1-1-1v-8a1,1,0,0,1,1-1h32a1,1,0,0,1,1,1v8A1,1,0,0,1,270,355Zm-31-2h30v-6H239v6Z" transform="translate(-175 -161)"/><path class="b" d="M270,367H238a1,1,0,0,1-1-1v-8a1,1,0,0,1,1-1h32a1,1,0,0,1,1,1v8A1,1,0,0,1,270,367Zm-31-2h30v-6H239v6Z" transform="translate(-175 -161)"/><path class="b" d="M266,355a1,1,0,0,1-1-1v-4a1,1,0,0,1,2,0v4A1,1,0,0,1,266,355Z" transform="translate(-175 -161)"/><path class="b" d="M262,355a1,1,0,0,1-1-1v-4a1,1,0,0,1,2,0v4A1,1,0,0,1,262,355Z" transform="translate(-175 -161)"/><path class="b" d="M258,355a1,1,0,0,1-1-1v-4a1,1,0,0,1,2,0v4A1,1,0,0,1,258,355Z" transform="translate(-175 -161)"/><path class="b" d="M254,355a1,1,0,0,1-1-1v-4a1,1,0,0,1,2,0v4A1,1,0,0,1,254,355Z" transform="translate(-175 -161)"/><path class="b" d="M250,355a1,1,0,0,1-1-1v-4a1,1,0,0,1,2,0v4A1,1,0,0,1,250,355Z" transform="translate(-175 -161)"/><path class="b" d="M246,355a1,1,0,0,1-1-1v-4a1,1,0,0,1,2,0v4A1,1,0,0,1,246,355Z" transform="translate(-175 -161)"/><path class="b" d="M242,355a1,1,0,0,1-1-1v-4a1,1,0,0,1,2,0v4A1,1,0,0,1,242,355Z" transform="translate(-175 -161)"/><path class="b" d="M265,362a1,1,0,0,1,1-1h0a1,1,0,0,1,1,1h0a1,1,0,0,1-1,1h0A1,1,0,0,1,265,362Zm-4,0a1,1,0,0,1,1-1h0a1,1,0,0,1,1,1h0a1,1,0,0,1-1,1h0A1,1,0,0,1,261,362Zm-4,0a1,1,0,0,1,1-1h0a1,1,0,0,1,1,1h0a1,1,0,0,1-1,1h0A1,1,0,0,1,257,362Zm-4,0a1,1,0,0,1,1-1h0a1,1,0,0,1,1,1h0a1,1,0,0,1-1,1h0A1,1,0,0,1,253,362Zm-4,0a1,1,0,0,1,1-1h0a1,1,0,0,1,1,1h0a1,1,0,0,1-1,1h0A1,1,0,0,1,249,362Zm-4,0a1,1,0,0,1,1-1h0a1,1,0,0,1,1,1h0a1,1,0,0,1-1,1h0A1,1,0,0,1,245,362Zm-4,0a1,1,0,0,1,1-1h0a1,1,0,0,1,1,1h0a1,1,0,0,1-1,1h0A1,1,0,0,1,241,362Z" transform="translate(-175 -161)"/><path class="b" d="M246,339h-4a1,1,0,0,1,0-2h4A1,1,0,0,1,246,339Z" transform="translate(-175 -161)"/><path class="b" d="M214,363a13,13,0,1,1,13-13A13,13,0,0,1,214,363Zm0-24a11,11,0,1,0,11,11A11,11,0,0,0,214,339Z" transform="translate(-175 -161)"/><path class="b" d="M214,355a5,5,0,1,1,5-5A5,5,0,0,1,214,355Zm0-8a3,3,0,1,0,3,3A3,3,0,0,0,214,347Z" transform="translate(-175 -161)"/><path class="b" d="M214,347a1,1,0,0,1-1-1v-8a1,1,0,0,1,2,0v8A1,1,0,0,1,214,347Z" transform="translate(-175 -161)"/><path class="b" d="M216.83,348.17a1,1,0,0,1-.71-1.71l5.63-5.63a1,1,0,0,1,1.41,1.41l-5.63,5.63A1,1,0,0,1,216.83,348.17Z" transform="translate(-175 -161)"/><path class="b" d="M222.46,359.46a1,1,0,0,1-.71-0.29l-5-5a1,1,0,1,1,1.41-1.41l5,5A1,1,0,0,1,222.46,359.46Z" transform="translate(-175 -161)"/><path class="b" d="M270,383a1,1,0,0,1-1-1v-4a1,1,0,0,1,2,0v4A1,1,0,0,1,270,383Z" transform="translate(-175 -161)"/><path class="b" d="M266,383a1,1,0,0,1-1-1v-4a1,1,0,0,1,2,0v4A1,1,0,0,1,266,383Z" transform="translate(-175 -161)"/><path class="b" d="M262,383a1,1,0,0,1-1-1v-4a1,1,0,0,1,2,0v4A1,1,0,0,1,262,383Z" transform="translate(-175 -161)"/><path class="b" d="M258,383a1,1,0,0,1-1-1v-4a1,1,0,0,1,2,0v4A1,1,0,0,1,258,383Z" transform="translate(-175 -161)"/><path class="b" d="M254,383a1,1,0,0,1-1-1v-4a1,1,0,0,1,2,0v4A1,1,0,0,1,254,383Z" transform="translate(-175 -161)"/><path class="b" d="M250,383a1,1,0,0,1-1-1v-4a1,1,0,0,1,2,0v4A1,1,0,0,1,250,383Z" transform="translate(-175 -161)"/><path class="b" d="M246,383a1,1,0,0,1-1-1v-4a1,1,0,0,1,2,0v4A1,1,0,0,1,246,383Z" transform="translate(-175 -161)"/><path class="b" d="M242,383a1,1,0,0,1-1-1v-4a1,1,0,0,1,2,0v4A1,1,0,0,1,242,383Z" transform="translate(-175 -161)"/><path class="b" d="M238,383a1,1,0,0,1-1-1v-4a1,1,0,0,1,2,0v4A1,1,0,0,1,238,383Z" transform="translate(-175 -161)"/><path class="b" d="M234,383a1,1,0,0,1-1-1v-4a1,1,0,0,1,2,0v4A1,1,0,0,1,234,383Z" transform="translate(-175 -161)"/><path class="b" d="M230,383a1,1,0,0,1-1-1v-4a1,1,0,0,1,2,0v4A1,1,0,0,1,230,383Z" transform="translate(-175 -161)"/><path class="b" d="M226,383a1,1,0,0,1-1-1v-4a1,1,0,0,1,2,0v4A1,1,0,0,1,226,383Z" transform="translate(-175 -161)"/><path class="b" d="M222,383a1,1,0,0,1-1-1v-4a1,1,0,0,1,2,0v4A1,1,0,0,1,222,383Z" transform="translate(-175 -161)"/><path class="b" d="M218,383a1,1,0,0,1-1-1v-4a1,1,0,0,1,2,0v4A1,1,0,0,1,218,383Z" transform="translate(-175 -161)"/><path class="b" d="M214,383a1,1,0,0,1-1-1v-4a1,1,0,0,1,2,0v4A1,1,0,0,1,214,383Z" transform="translate(-175 -161)"/><path class="b" d="M210,383a1,1,0,0,1-1-1v-4a1,1,0,0,1,2,0v4A1,1,0,0,1,210,383Z" transform="translate(-175 -161)"/><path class="b" d="M206,383a1,1,0,0,1-1-1v-4a1,1,0,0,1,2,0v4A1,1,0,0,1,206,383Z" transform="translate(-175 -161)"/><path class="b" d="M202,383a1,1,0,0,1-1-1v-4a1,1,0,0,1,2,0v4A1,1,0,0,1,202,383Z" transform="translate(-175 -161)"/><path class="b" d="M198,383a1,1,0,0,1-1-1v-4a1,1,0,0,1,2,0v4A1,1,0,0,1,198,383Z" transform="translate(-175 -161)"/><path class="b" d="M270,323a1,1,0,0,1-1-1v-4a1,1,0,0,1,2,0v4A1,1,0,0,1,270,323Z" transform="translate(-175 -161)"/><path class="b" d="M266,323a1,1,0,0,1-1-1v-4a1,1,0,0,1,2,0v4A1,1,0,0,1,266,323Z" transform="translate(-175 -161)"/><path class="b" d="M262,323a1,1,0,0,1-1-1v-4a1,1,0,0,1,2,0v4A1,1,0,0,1,262,323Z" transform="translate(-175 -161)"/><path class="b" d="M258,323a1,1,0,0,1-1-1v-4a1,1,0,0,1,2,0v4A1,1,0,0,1,258,323Z" transform="translate(-175 -161)"/><path class="b" d="M254,323a1,1,0,0,1-1-1v-4a1,1,0,0,1,2,0v4A1,1,0,0,1,254,323Z" transform="translate(-175 -161)"/><path class="b" d="M250,323a1,1,0,0,1-1-1v-4a1,1,0,0,1,2,0v4A1,1,0,0,1,250,323Z" transform="translate(-175 -161)"/><path class="b" d="M246,323a1,1,0,0,1-1-1v-4a1,1,0,0,1,2,0v4A1,1,0,0,1,246,323Z" transform="translate(-175 -161)"/><path class="b" d="M242,323a1,1,0,0,1-1-1v-4a1,1,0,0,1,2,0v4A1,1,0,0,1,242,323Z" transform="translate(-175 -161)"/><path class="b" d="M238,323a1,1,0,0,1-1-1v-4a1,1,0,0,1,2,0v4A1,1,0,0,1,238,323Z" transform="translate(-175 -161)"/><path class="b" d="M234,323a1,1,0,0,1-1-1v-4a1,1,0,0,1,2,0v4A1,1,0,0,1,234,323Z" transform="translate(-175 -161)"/><path class="b" d="M230,323a1,1,0,0,1-1-1v-4a1,1,0,0,1,2,0v4A1,1,0,0,1,230,323Z" transform="translate(-175 -161)"/><path class="b" d="M226,323a1,1,0,0,1-1-1v-4a1,1,0,0,1,2,0v4A1,1,0,0,1,226,323Z" transform="translate(-175 -161)"/><path class="b" d="M222,323a1,1,0,0,1-1-1v-4a1,1,0,0,1,2,0v4A1,1,0,0,1,222,323Z" transform="translate(-175 -161)"/><path class="b" d="M218,323a1,1,0,0,1-1-1v-4a1,1,0,0,1,2,0v4A1,1,0,0,1,218,323Z" transform="translate(-175 -161)"/><path class="b" d="M214,323a1,1,0,0,1-1-1v-4a1,1,0,0,1,2,0v4A1,1,0,0,1,214,323Z" transform="translate(-175 -161)"/><path class="b" d="M210,323a1,1,0,0,1-1-1v-4a1,1,0,0,1,2,0v4A1,1,0,0,1,210,323Z" transform="translate(-175 -161)"/><path class="b" d="M206,323a1,1,0,0,1-1-1v-4a1,1,0,0,1,2,0v4A1,1,0,0,1,206,323Z" transform="translate(-175 -161)"/><path class="b" d="M202,323a1,1,0,0,1-1-1v-4a1,1,0,0,1,2,0v4A1,1,0,0,1,202,323Z" transform="translate(-175 -161)"/><path class="b" d="M198,323a1,1,0,0,1-1-1v-4a1,1,0,0,1,2,0v4A1,1,0,0,1,198,323Z" transform="translate(-175 -161)"/><path class="b" d="M592,315a1,1,0,0,1-1-1V290a1,1,0,0,1,2,0v24A1,1,0,0,1,592,315Z" transform="translate(-175 -161)"/><path class="b" d="M592,291a1,1,0,0,1-1-1,7,7,0,0,0-7-7,1,1,0,0,1,0-2,9,9,0,0,1,9,9A1,1,0,0,1,592,291Z" transform="translate(-175 -161)"/><path class="b" d="M290,219a1,1,0,0,1-1-1V190a1,1,0,0,1,2,0v28A1,1,0,0,1,290,219Z" transform="translate(-175 -161)"/><path class="b" d="M290,191a1,1,0,0,1-1-1,9,9,0,0,1,9-9,1,1,0,0,1,0,2,7,7,0,0,0-7,7A1,1,0,0,1,290,191Z" transform="translate(-175 -161)"/><path class="b" d="M386,191a1,1,0,0,1-1-1,7,7,0,0,0-7-7,1,1,0,0,1,0-2,9,9,0,0,1,9,9A1,1,0,0,1,386,191Z" transform="translate(-175 -161)"/><path class="b" d="M378,183H298a1,1,0,0,1,0-2h80A1,1,0,0,1,378,183Z" transform="translate(-175 -161)"/><path class="b" d="M386,219a1,1,0,0,1-1-1V190a1,1,0,0,1,2,0v28A1,1,0,0,1,386,219Z" transform="translate(-175 -161)"/><path class="b" d="M326,219a1,1,0,0,1-1-1v-4a1,1,0,0,1,2,0v4A1,1,0,0,1,326,219Z" transform="translate(-175 -161)"/><path class="b" d="M424,207H334a1,1,0,0,1,0-2h90A1,1,0,0,1,424,207Z" transform="translate(-175 -161)"/><path class="b" d="M326,215a1,1,0,0,1-1-1,9,9,0,0,1,9-9,1,1,0,0,1,0,2,7,7,0,0,0-7,7A1,1,0,0,1,326,215Z" transform="translate(-175 -161)"/><path class="b" d="M432,215a1,1,0,0,1-1-1,7,7,0,0,0-7-7,1,1,0,0,1,0-2,9,9,0,0,1,9,9A1,1,0,0,1,432,215Z" transform="translate(-175 -161)"/><path class="b" d="M278,423a9,9,0,0,1-9-9,1,1,0,0,1,2,0,7,7,0,0,0,7,7A1,1,0,0,1,278,423Z" transform="translate(-175 -161)"/><path class="b" d="M370,423H278a1,1,0,0,1,0-2h92A1,1,0,0,1,370,423Z" transform="translate(-175 -161)"/><path class="b" d="M370,423a1,1,0,0,1,0-2,7,7,0,0,0,7-7,1,1,0,0,1,2,0A9,9,0,0,1,370,423Z" transform="translate(-175 -161)"/><path class="b" d="M378,415a1,1,0,0,1-1-1v-4a1,1,0,0,1,2,0v4A1,1,0,0,1,378,415Z" transform="translate(-175 -161)"/><path class="b" d="M362,431a1,1,0,0,1-1-1V410a1,1,0,0,1,2,0v20A1,1,0,0,1,362,431Z" transform="translate(-175 -161)"/><path class="b" d="M370,439a9,9,0,0,1-9-9,1,1,0,0,1,2,0,7,7,0,0,0,7,7A1,1,0,0,1,370,439Z" transform="translate(-175 -161)"/><path class="b" d="M406,439H370a1,1,0,0,1,0-2h36A1,1,0,0,1,406,439Z" transform="translate(-175 -161)"/><path class="b" d="M406,439a1,1,0,0,1,0-2,7,7,0,0,0,7-7,1,1,0,0,1,2,0A9,9,0,0,1,406,439Z" transform="translate(-175 -161)"/><path class="b" d="M414,431a1,1,0,0,1-1-1V398a1,1,0,0,1,2,0v32A1,1,0,0,1,414,431Z" transform="translate(-175 -161)"/><path class="b" d="M270,415a1,1,0,0,1-1-1V394.07a1,1,0,0,1,2,0V414A1,1,0,0,1,270,415Z" transform="translate(-175 -161)"/><path class="b" d="M432,223a1,1,0,0,1-1-1v-8a1,1,0,0,1,2,0v8A1,1,0,0,1,432,223Z" transform="translate(-175 -161)"/><path class="e" d="M418,230" transform="translate(-175 -161)"/><path class="e" d="M418,238" transform="translate(-175 -161)"/><path class="b" d="M438,259H426a1,1,0,0,1,0-2h12A1,1,0,0,1,438,259Z" transform="translate(-175 -161)"/><path class="b" d="M432,295a7,7,0,0,1-7-7V226a1,1,0,0,1,1-1h12a1,1,0,0,1,1,1v62A7,7,0,0,1,432,295Zm-5-68v61a5,5,0,0,0,10,0V227H427Z" transform="translate(-175 -161)"/><path class="b" d="M440,227H424a1,1,0,0,1,0-2h16A1,1,0,0,1,440,227Z" transform="translate(-175 -161)"/><path class="b" d="M430,283h-4a1,1,0,0,1,0-2h4A1,1,0,0,1,430,283Z" transform="translate(-175 -161)"/><path class="b" d="M430,279h-4a1,1,0,0,1,0-2h4A1,1,0,0,1,430,279Z" transform="translate(-175 -161)"/><path class="b" d="M430,275h-4a1,1,0,0,1,0-2h4A1,1,0,0,1,430,275Z" transform="translate(-175 -161)"/><path class="b" d="M430,271h-4a1,1,0,0,1,0-2h4A1,1,0,0,1,430,271Z" transform="translate(-175 -161)"/><path class="b" d="M430,267h-4a1,1,0,0,1,0-2h4A1,1,0,0,1,430,267Z" transform="translate(-175 -161)"/><path class="b" d="M430,263h-4a1,1,0,0,1,0-2h4A1,1,0,0,1,430,263Z" transform="translate(-175 -161)"/><path class="b" d="M430,259h-4a1,1,0,0,1,0-2h4A1,1,0,0,1,430,259Z" transform="translate(-175 -161)"/><path class="b" d="M430,255h-4a1,1,0,0,1,0-2h4A1,1,0,0,1,430,255Z" transform="translate(-175 -161)"/><path class="b" d="M430,251h-4a1,1,0,0,1,0-2h4A1,1,0,0,1,430,251Z" transform="translate(-175 -161)"/><path class="b" d="M430,247h-4a1,1,0,0,1,0-2h4A1,1,0,0,1,430,247Z" transform="translate(-175 -161)"/><path class="b" d="M430,243h-4a1,1,0,0,1,0-2h4A1,1,0,0,1,430,243Z" transform="translate(-175 -161)"/><path class="b" d="M430,239h-4a1,1,0,0,1,0-2h4A1,1,0,0,1,430,239Z" transform="translate(-175 -161)"/><path class="b" d="M430,235h-4a1,1,0,0,1,0-2h4A1,1,0,0,1,430,235Z" transform="translate(-175 -161)"/><path class="b" d="M462,251H450a1,1,0,0,1,0-2h12A1,1,0,0,1,462,251Z" transform="translate(-175 -161)"/><path class="b" d="M456,295a7,7,0,0,1-7-7V226a1,1,0,0,1,1-1h12a1,1,0,0,1,1,1v62A7,7,0,0,1,456,295Zm-5-68v61a5,5,0,0,0,10,0V227H451Z" transform="translate(-175 -161)"/><path class="b" d="M464,227H448a1,1,0,0,1,0-2h16A1,1,0,0,1,464,227Z" transform="translate(-175 -161)"/><path class="b" d="M454,283h-4a1,1,0,0,1,0-2h4A1,1,0,0,1,454,283Z" transform="translate(-175 -161)"/><path class="b" d="M454,279h-4a1,1,0,0,1,0-2h4A1,1,0,0,1,454,279Z" transform="translate(-175 -161)"/><path class="b" d="M454,275h-4a1,1,0,0,1,0-2h4A1,1,0,0,1,454,275Z" transform="translate(-175 -161)"/><path class="b" d="M454,271h-4a1,1,0,0,1,0-2h4A1,1,0,0,1,454,271Z" transform="translate(-175 -161)"/><path class="b" d="M454,267h-4a1,1,0,0,1,0-2h4A1,1,0,0,1,454,267Z" transform="translate(-175 -161)"/><path class="b" d="M454,263h-4a1,1,0,0,1,0-2h4A1,1,0,0,1,454,263Z" transform="translate(-175 -161)"/><path class="b" d="M454,259h-4a1,1,0,0,1,0-2h4A1,1,0,0,1,454,259Z" transform="translate(-175 -161)"/><path class="b" d="M454,255h-4a1,1,0,0,1,0-2h4A1,1,0,0,1,454,255Z" transform="translate(-175 -161)"/><path class="b" d="M454,251h-4a1,1,0,0,1,0-2h4A1,1,0,0,1,454,251Z" transform="translate(-175 -161)"/><path class="b" d="M454,247h-4a1,1,0,0,1,0-2h4A1,1,0,0,1,454,247Z" transform="translate(-175 -161)"/><path class="b" d="M454,243h-4a1,1,0,0,1,0-2h4A1,1,0,0,1,454,243Z" transform="translate(-175 -161)"/><path class="b" d="M454,239h-4a1,1,0,0,1,0-2h4A1,1,0,0,1,454,239Z" transform="translate(-175 -161)"/><path class="b" d="M454,235h-4a1,1,0,0,1,0-2h4A1,1,0,0,1,454,235Z" transform="translate(-175 -161)"/><polygon class="a" points="299 141 299 85 239 85 239 141 235 141 235 81 303 81 303 141 299 141"/><path class="b" d="M478,303h-4a1,1,0,0,1-1-1V247H415v55a1,1,0,0,1-1,1h-4a1,1,0,0,1-1-1V242a1,1,0,0,1,1-1h68a1,1,0,0,1,1,1v60A1,1,0,0,1,478,303Zm-3-2h2V243H411v58h2V246a1,1,0,0,1,1-1h60a1,1,0,0,1,1,1v55Z" transform="translate(-175 -161)"/><path class="b" d="M436,227h-8a1,1,0,0,1-1-1v-4a1,1,0,0,1,1-1h8a1,1,0,0,1,1,1v4A1,1,0,0,1,436,227Zm-7-2h6v-2h-6v2Z" transform="translate(-175 -161)"/><path class="b" d="M460,227h-8a1,1,0,0,1-1-1v-4a1,1,0,0,1,1-1h8a1,1,0,0,1,1,1v4A1,1,0,0,1,460,227Zm-7-2h6v-2h-6v2Z" transform="translate(-175 -161)"/><path class="b" d="M456,223a1,1,0,0,1-1-1V206a1,1,0,0,1,2,0v16A1,1,0,0,1,456,223Z" transform="translate(-175 -161)"/><path class="b" d="M456,207a1,1,0,0,1-1-1,9,9,0,0,1,9-9,1,1,0,0,1,0,2,7,7,0,0,0-7,7A1,1,0,0,1,456,207Z" transform="translate(-175 -161)"/><path class="b" d="M486,207a1,1,0,0,1-1-1,7,7,0,0,0-7-7,1,1,0,0,1,0-2,9,9,0,0,1,9,9A1,1,0,0,1,486,207Z" transform="translate(-175 -161)"/><path class="b" d="M478,199H464a1,1,0,0,1,0-2h14A1,1,0,0,1,478,199Z" transform="translate(-175 -161)"/><path class="b" d="M486,275a1,1,0,0,1-1-1V206a1,1,0,0,1,2,0v68A1,1,0,0,1,486,275Z" transform="translate(-175 -161)"/><path class="b" d="M494,283a9,9,0,0,1-9-9,1,1,0,0,1,2,0,7,7,0,0,0,7,7A1,1,0,0,1,494,283Z" transform="translate(-175 -161)"/><path class="b" d="M498,283h-4a1,1,0,0,1,0-2h4A1,1,0,0,1,498,283Z" transform="translate(-175 -161)"/><path class="b" d="M486,307a1,1,0,0,1-1-1v-8a1,1,0,0,1,2,0v8A1,1,0,0,1,486,307Z" transform="translate(-175 -161)"/><path class="b" d="M486,299a1,1,0,0,1-1-1,9,9,0,0,1,9-9,1,1,0,0,1,0,2,7,7,0,0,0-7,7A1,1,0,0,1,486,299Z" transform="translate(-175 -161)"/><path class="b" d="M498,291h-4a1,1,0,0,1,0-2h4A1,1,0,0,1,498,291Z" transform="translate(-175 -161)"/><path class="b" d="M562,371H514a1,1,0,0,1-1-1V318a1,1,0,0,1,.29-0.71l8-8A1,1,0,0,1,522,309h40a1,1,0,0,1,1,1v60A1,1,0,0,1,562,371Zm-47-2h46V311H522.41L515,318.41V369Z" transform="translate(-175 -161)"/><path class="b" d="M522,319h-8a1,1,0,0,1,0-2h7v-7a1,1,0,0,1,2,0v8A1,1,0,0,1,522,319Z" transform="translate(-175 -161)"/><path class="b" d="M554,351H522a1,1,0,0,1,0-2h32A1,1,0,0,1,554,351Z" transform="translate(-175 -161)"/><path class="b" d="M528,347h-4a1,1,0,0,1-1-1V334a1,1,0,0,1,1-1h4a1,1,0,0,1,1,1v12A1,1,0,0,1,528,347Zm-3-2h2V335h-2v10Z" transform="translate(-175 -161)"/><path class="b" d="M535.86,347H532a1,1,0,0,1-1-1V326a1,1,0,0,1,1-1h3.86a1,1,0,0,1,1,1v20A1,1,0,0,1,535.86,347ZM533,345h1.86V327H533v18Z" transform="translate(-175 -161)"/><path class="b" d="M544,347h-4a1,1,0,0,1-1-1v-8a1,1,0,0,1,1-1h4a1,1,0,0,1,1,1v8A1,1,0,0,1,544,347Zm-3-2h2v-6h-2v6Z" transform="translate(-175 -161)"/><path class="b" d="M552,347h-4a1,1,0,0,1-1-1V330a1,1,0,0,1,1-1h4a1,1,0,0,1,1,1v16A1,1,0,0,1,552,347Zm-3-2h2V331h-2v14Z" transform="translate(-175 -161)"/><path class="b" d="M562,403H514a1,1,0,0,1-1-1V378a1,1,0,0,1,1-1h48a1,1,0,0,1,1,1v24A1,1,0,0,1,562,403Zm-47-2h46V379H515v22Z" transform="translate(-175 -161)"/><path class="b" d="M538,395.07a5,5,0,1,1,5-5A5,5,0,0,1,538,395.07Zm0-8.07a3,3,0,1,0,3,3A3,3,0,0,0,538,387Z" transform="translate(-175 -161)"/><path class="b" d="M558,399H518a1,1,0,0,1-1-1V382a1,1,0,0,1,1-1h40a1,1,0,0,1,1,1v16A1,1,0,0,1,558,399Zm-39-2h38V383H519v14Z" transform="translate(-175 -161)"/><path class="b" d="M552,391h-4a1,1,0,0,1,0-2h4A1,1,0,0,1,552,391Z" transform="translate(-175 -161)"/><path class="b" d="M528,391h-4a1,1,0,0,1,0-2h4A1,1,0,0,1,528,391Z" transform="translate(-175 -161)"/><path class="b" d="M592,395a23,23,0,0,1-7-44.91V318a1,1,0,0,1,1-1h12a1,1,0,0,1,1,1v32.09A23,23,0,0,1,592,395Zm-5-76v31.83a1,1,0,0,1-.73,1,21,21,0,1,0,11.45,0,1,1,0,0,1-.73-1V319H587Z" transform="translate(-175 -161)"/><path class="b" d="M611.59,363H572.41a1,1,0,0,1,0-2h39.19A1,1,0,0,1,611.59,363Z" transform="translate(-175 -161)"/><path class="b" d="M590,351h-4a1,1,0,0,1,0-2h4A1,1,0,0,1,590,351Z" transform="translate(-175 -161)"/><path class="b" d="M590,347h-4a1,1,0,0,1,0-2h4A1,1,0,0,1,590,347Z" transform="translate(-175 -161)"/><path class="b" d="M590,343h-4a1,1,0,0,1,0-2h4A1,1,0,0,1,590,343Z" transform="translate(-175 -161)"/><path class="b" d="M590,339h-4a1,1,0,0,1,0-2h4A1,1,0,0,1,590,339Z" transform="translate(-175 -161)"/><path class="b" d="M590,335h-4a1,1,0,0,1,0-2h4A1,1,0,0,1,590,335Z" transform="translate(-175 -161)"/><path class="b" d="M590,331h-4a1,1,0,0,1,0-2h4A1,1,0,0,1,590,331Z" transform="translate(-175 -161)"/><path class="b" d="M590,327h-4a1,1,0,0,1,0-2h4A1,1,0,0,1,590,327Z" transform="translate(-175 -161)"/><path class="b" d="M590,323h-4a1,1,0,0,1,0-2h4A1,1,0,0,1,590,323Z" transform="translate(-175 -161)"/><path class="b" d="M600,319H584a1,1,0,0,1,0-2h16A1,1,0,0,1,600,319Z" transform="translate(-175 -161)"/><path class="b" d="M596,319h-8a1,1,0,0,1-1-1v-4a1,1,0,0,1,1-1h8a1,1,0,0,1,1,1v4A1,1,0,0,1,596,319Zm-7-2h6v-2h-6v2Z" transform="translate(-175 -161)"/><path d="M580,375a3,3,0,1,1,3-3A3,3,0,0,1,580,375Zm0-4a1,1,0,1,0,1,1A1,1,0,0,0,580,371Z" transform="translate(-175 -161)"/><path d="M592,387a3,3,0,1,1,3-3A3,3,0,0,1,592,387Zm0-4a1,1,0,1,0,1,1A1,1,0,0,0,592,383Z" transform="translate(-175 -161)"/><path d="M604,379a3,3,0,1,1,3-3A3,3,0,0,1,604,379Zm0-4a1,1,0,1,0,1,1A1,1,0,0,0,604,375Z" transform="translate(-175 -161)"/><path d="M594,371a1,1,0,1,1,.71-0.29A1.05,1.05,0,0,1,594,371Z" transform="translate(-175 -161)"/><path d="M582,383a1,1,0,0,1-1-1,1,1,0,0,1,.29-0.71A1,1,0,1,1,582,383Z" transform="translate(-175 -161)"/><path d="M602,385a1.05,1.05,0,0,1-.71-0.29A1,1,0,0,1,601,384a1,1,0,0,1,.29-0.71,1,1,0,0,1,1.42,0,1,1,0,0,1,.29.71A1,1,0,0,1,602,385Z" transform="translate(-175 -161)"/><path d="M590,375a1,1,0,1,1,.71-0.29A1.05,1.05,0,0,1,590,375Z" transform="translate(-175 -161)"/><path class="b" d="M230,263h-4a1,1,0,0,1,0-2h4A1,1,0,0,1,230,263Z" transform="translate(-175 -161)"/><path class="b" d="M230,259h-4a1,1,0,0,1,0-2h4A1,1,0,0,1,230,259Z" transform="translate(-175 -161)"/><path class="b" d="M230,255h-4a1,1,0,0,1,0-2h4A1,1,0,0,1,230,255Z" transform="translate(-175 -161)"/><path class="b" d="M230,251h-4a1,1,0,0,1,0-2h4A1,1,0,0,1,230,251Z" transform="translate(-175 -161)"/><path class="b" d="M230,247h-4a1,1,0,0,1,0-2h4A1,1,0,0,1,230,247Z" transform="translate(-175 -161)"/><path class="b" d="M230,243h-4a1,1,0,0,1,0-2h4A1,1,0,0,1,230,243Z" transform="translate(-175 -161)"/><path class="b" d="M230,239h-4a1,1,0,0,1,0-2h4A1,1,0,0,1,230,239Z" transform="translate(-175 -161)"/><path class="b" d="M230,235h-4a1,1,0,0,1,0-2h4A1,1,0,0,1,230,235Z" transform="translate(-175 -161)"/><path class="b" d="M250,303H214a5,5,0,0,1-5-5v-8a1,1,0,0,1,.17-0.55L225,265.7V230a1,1,0,0,1,1-1h12a1,1,0,0,1,1,1v35.7l15.83,23.75a1,1,0,0,1,.17.55v8A5,5,0,0,1,250,303Zm-39-12.7V298a3,3,0,0,0,3,3h36a3,3,0,0,0,3-3v-7.7l-15.83-23.75A1,1,0,0,1,237,266V231H227v35a1,1,0,0,1-.17.55Z" transform="translate(-175 -161)"/><path class="b" d="M222,291H210a1,1,0,0,1,0-2h12A1,1,0,0,1,222,291Z" transform="translate(-175 -161)"/><path class="b" d="M230,291h-4a1,1,0,0,1,0-2h4A1,1,0,0,1,230,291Z" transform="translate(-175 -161)"/><path class="b" d="M254,291H234a1,1,0,0,1,0-2h20A1,1,0,0,1,254,291Z" transform="translate(-175 -161)"/><path class="b" d="M236,231h-8a1,1,0,0,1-1-1v-4a1,1,0,0,1,1-1h8a1,1,0,0,1,1,1v4A1,1,0,0,1,236,231Zm-7-2h6v-2h-6v2Z" transform="translate(-175 -161)"/><path class="b" d="M240,231H224a1,1,0,0,1,0-2h16A1,1,0,0,1,240,231Z" transform="translate(-175 -161)"/><path class="b" d="M243.33,275H220.67a1,1,0,0,1,0-2h22.67A1,1,0,0,1,243.33,275Z" transform="translate(-175 -161)"/><path d="M224,287a3,3,0,1,1,3-3A3,3,0,0,1,224,287Zm0-4a1,1,0,1,0,1,1A1,1,0,0,0,224,283Z" transform="translate(-175 -161)"/><path d="M234,299a3,3,0,1,1,3-3A3,3,0,0,1,234,299Zm0-4a1,1,0,1,0,1,1A1,1,0,0,0,234,295Z" transform="translate(-175 -161)"/><path d="M238,285a3,3,0,1,1,3-3A3,3,0,0,1,238,285Zm0-4a1,1,0,1,0,1,1A1,1,0,0,0,238,281Z" transform="translate(-175 -161)"/><path d="M232,279a1,1,0,0,1-.71-0.29A1,1,0,1,1,232,279Z" transform="translate(-175 -161)"/><path d="M222,295a1,1,0,1,1,.71-0.29A1.05,1.05,0,0,1,222,295Z" transform="translate(-175 -161)"/><path d="M242,297a1,1,0,1,1,.71-0.29A1.05,1.05,0,0,1,242,297Z" transform="translate(-175 -161)"/><path d="M247.75,295a1,1,0,1,1,.71-0.29A1.05,1.05,0,0,1,247.75,295Z" transform="translate(-175 -161)"/><path d="M216,298a1,1,0,1,1,.71-0.29A1.05,1.05,0,0,1,216,298Z" transform="translate(-175 -161)"/><path d="M246,287a1,1,0,1,1,.71-0.29A1.05,1.05,0,0,1,246,287Z" transform="translate(-175 -161)"/><path class="b" d="M386,447a1.05,1.05,0,0,1-.71-0.29A1,1,0,0,1,385,446a1,1,0,1,1,2,0,1,1,0,0,1-.29.71A1.05,1.05,0,0,1,386,447Z" transform="translate(-175 -161)"/><path class="b" d="M401,446a1,1,0,0,1,1-1h0a1,1,0,0,1,1,1h0a1,1,0,0,1-1,1h0A1,1,0,0,1,401,446Zm-4,0a1,1,0,0,1,1-1h0a1,1,0,0,1,1,1h0a1,1,0,0,1-1,1h0A1,1,0,0,1,397,446Zm-4,0a1,1,0,0,1,1-1h0a1,1,0,0,1,1,1h0a1,1,0,0,1-1,1h0A1,1,0,0,1,393,446Zm-4,0a1,1,0,0,1,1-1h0a1,1,0,0,1,1,1h0a1,1,0,0,1-1,1h0A1,1,0,0,1,389,446Z" transform="translate(-175 -161)"/><path class="b" d="M406,447a1,1,0,0,1-.71-0.29A1,1,0,1,1,407,446a1,1,0,0,1-.29.71A1.05,1.05,0,0,1,406,447Z" transform="translate(-175 -161)"/><path class="b" d="M410,451h-8a1,1,0,0,1,0-2h8A1,1,0,0,1,410,451Z" transform="translate(-175 -161)"/><path class="b" d="M226,399H206a1,1,0,0,1,0-2h20A1,1,0,0,1,226,399Z" transform="translate(-175 -161)"/><path class="b" d="M229,402a1,1,0,0,1,1-1h0a1,1,0,0,1,1,1h0a1,1,0,0,1-1,1h0A1,1,0,0,1,229,402Zm-4,0a1,1,0,0,1,1-1h0a1,1,0,0,1,1,1h0a1,1,0,0,1-1,1h0A1,1,0,0,1,225,402Zm-4,0a1,1,0,0,1,1-1h0a1,1,0,0,1,1,1h0a1,1,0,0,1-1,1h0A1,1,0,0,1,221,402Z" transform="translate(-175 -161)"/><path class="b" d="M473,190a1,1,0,0,1,1-1h0a1,1,0,0,1,1,1h0a1,1,0,0,1-1,1h0A1,1,0,0,1,473,190Zm-4,0a1,1,0,0,1,1-1h0a1,1,0,0,1,1,1h0a1,1,0,0,1-1,1h0A1,1,0,0,1,469,190Zm-4,0a1,1,0,0,1,1-1h0a1,1,0,0,1,1,1h0a1,1,0,0,1-1,1h0A1,1,0,0,1,465,190Z" transform="translate(-175 -161)"/><path class="b" d="M357,174a1,1,0,0,1,1-1h0a1,1,0,0,1,1,1h0a1,1,0,0,1-1,1h0A1,1,0,0,1,357,174Zm-4,0a1,1,0,0,1,1-1h0a1,1,0,0,1,1,1h0a1,1,0,0,1-1,1h0A1,1,0,0,1,353,174Zm-4,0a1,1,0,0,1,1-1h0a1,1,0,0,1,1,1h0a1,1,0,0,1-1,1h0A1,1,0,0,1,349,174Zm-4,0a1,1,0,0,1,1-1h0a1,1,0,0,1,1,1h0a1,1,0,0,1-1,1h0A1,1,0,0,1,345,174Zm-4,0a1,1,0,0,1,1-1h0a1,1,0,0,1,1,1h0a1,1,0,0,1-1,1h0A1,1,0,0,1,341,174Zm-4,0a1,1,0,0,1,1-1h0a1,1,0,0,1,1,1h0a1,1,0,0,1-1,1h0A1,1,0,0,1,337,174Zm-4,0a1,1,0,0,1,1-1h0a1,1,0,0,1,1,1h0a1,1,0,0,1-1,1h0A1,1,0,0,1,333,174Zm-4,0a1,1,0,0,1,1-1h0a1,1,0,0,1,1,1h0a1,1,0,0,1-1,1h0A1,1,0,0,1,329,174Z" transform="translate(-175 -161)"/><path class="b" d="M549,410a1,1,0,0,1,1-1h0a1,1,0,0,1,1,1h0a1,1,0,0,1-1,1h0A1,1,0,0,1,549,410Zm-4,0a1,1,0,0,1,1-1h0a1,1,0,0,1,1,1h0a1,1,0,0,1-1,1h0A1,1,0,0,1,545,410Zm-4,0a1,1,0,0,1,1-1h0a1,1,0,0,1,1,1h0a1,1,0,0,1-1,1h0A1,1,0,0,1,541,410Zm-4,0a1,1,0,0,1,1-1h0a1,1,0,0,1,1,1h0a1,1,0,0,1-1,1h0A1,1,0,0,1,537,410Z" transform="translate(-175 -161)"/><path class="b" d="M257,194a1,1,0,0,1,1-1h0a1,1,0,0,1,1,1h0a1,1,0,0,1-1,1h0A1,1,0,0,1,257,194Zm-4,0a1,1,0,0,1,1-1h0a1,1,0,0,1,1,1h0a1,1,0,0,1-1,1h0A1,1,0,0,1,253,194Zm-4,0a1,1,0,0,1,1-1h0a1,1,0,0,1,1,1h0a1,1,0,0,1-1,1h0A1,1,0,0,1,249,194Zm-4,0a1,1,0,0,1,1-1h0a1,1,0,0,1,1,1h0a1,1,0,0,1-1,1h0A1,1,0,0,1,245,194Z" transform="translate(-175 -161)"/><path class="b" d="M262,191h-8a1,1,0,0,1,0-2h8A1,1,0,0,1,262,191Z" transform="translate(-175 -161)"/><path class="b" d="M542,415h-8a1,1,0,0,1,0-2h8A1,1,0,0,1,542,415Z" transform="translate(-175 -161)"/><path class="b" d="M298,431h-4a1,1,0,0,1,0-2h4A1,1,0,0,1,298,431Z" transform="translate(-175 -161)"/><path class="b" d="M338,171h-4a1,1,0,0,1,0-2h4A1,1,0,0,1,338,171Z" transform="translate(-175 -161)"/><path class="b" d="M466,187h-4a1,1,0,0,1,0-2h4A1,1,0,0,1,466,187Z" transform="translate(-175 -161)"/><path class="b" d="M406,199h-8a1,1,0,0,1,0-2h8A1,1,0,0,1,406,199Z" transform="translate(-175 -161)"/><path class="b" d="M478,423h-8a1,1,0,0,1,0-2h8A1,1,0,0,1,478,423Z" transform="translate(-175 -161)"/><path class="b" d="M190,295h-4a1,1,0,0,1,0-2h4A1,1,0,0,1,190,295Z" transform="translate(-175 -161)"/><path class="b" d="M606,291h-4a1,1,0,0,1,0-2h4A1,1,0,0,1,606,291Z" transform="translate(-175 -161)"/><path class="b" d="M582,285h-4a1,1,0,0,1-1-1v-4a1,1,0,0,1,1-1h4a1,1,0,0,1,1,1v4A1,1,0,0,1,582,285Zm-3-2h2v-2h-2v2Z" transform="translate(-175 -161)"/><path class="b" d="M502,285h-4a1,1,0,0,1-1-1v-4a1,1,0,0,1,1-1h4a1,1,0,0,1,1,1v4A1,1,0,0,1,502,285Zm-3-2h2v-2h-2v2Z" transform="translate(-175 -161)"/><path class="b" d="M502,293h-4a1,1,0,0,1-1-1v-4a1,1,0,0,1,1-1h4a1,1,0,0,1,1,1v4A1,1,0,0,1,502,293Zm-3-2h2v-2h-2v2Z" transform="translate(-175 -161)"/><path class="b" d="M488,311h-4a1,1,0,0,1-1-1v-4a1,1,0,0,1,1-1h4a1,1,0,0,1,1,1v4A1,1,0,0,1,488,311Zm-3-2h2v-2h-2v2Z" transform="translate(-175 -161)"/><path class="b" d="M416,399h-4a1,1,0,0,1-1-1v-4a1,1,0,0,1,1-1h4a1,1,0,0,1,1,1v4A1,1,0,0,1,416,399Zm-3-2h2v-2h-2v2Z" transform="translate(-175 -161)"/><path class="b" d="M380,411h-4a1,1,0,0,1-1-1v-4a1,1,0,0,1,1-1h4a1,1,0,0,1,1,1v4A1,1,0,0,1,380,411Zm-3-2h2v-2h-2v2Z" transform="translate(-175 -161)"/><path class="b" d="M364,411h-4a1,1,0,0,1-1-1v-4a1,1,0,0,1,1-1h4a1,1,0,0,1,1,1v4A1,1,0,0,1,364,411Zm-3-2h2v-2h-2v2Z" transform="translate(-175 -161)"/><path class="b" d="M272,395h-4a1,1,0,0,1-1-1v-4a1,1,0,0,1,1-1h4a1,1,0,0,1,1,1v4A1,1,0,0,1,272,395Zm-3-2h2v-2h-2v2Z" transform="translate(-175 -161)"/><path class="b" d="M388,223h-4a1,1,0,0,1-1-1v-4a1,1,0,0,1,1-1h4a1,1,0,0,1,1,1v4A1,1,0,0,1,388,223Zm-3-2h2v-2h-2v2Z" transform="translate(-175 -161)"/><path class="b" d="M328,223h-4a1,1,0,0,1-1-1v-4a1,1,0,0,1,1-1h4a1,1,0,0,1,1,1v4A1,1,0,0,1,328,223Zm-3-2h2v-2h-2v2Z" transform="translate(-175 -161)"/><path class="b" d="M292,223h-4a1,1,0,0,1-1-1v-4a1,1,0,0,1,1-1h4a1,1,0,0,1,1,1v4A1,1,0,0,1,292,223Zm-3-2h2v-2h-2v2Z" transform="translate(-175 -161)"/><path class="b" d="M284,223h-4a1,1,0,0,1-1-1v-4a1,1,0,0,1,1-1h4a1,1,0,0,1,1,1v4A1,1,0,0,1,284,223Zm-3-2h2v-2h-2v2Z" transform="translate(-175 -161)"/><path class="b" d="M584,283h-2a1,1,0,0,1,0-2h2A1,1,0,0,1,584,283Z" transform="translate(-175 -161)"/><path class="b" d="M486,415a5,5,0,1,1,5-5A5,5,0,0,1,486,415Zm0-8a3,3,0,1,0,3,3A3,3,0,0,0,486,407Z" transform="translate(-175 -161)"/><path class="b" d="M194,279a5,5,0,1,1,5-5A5,5,0,0,1,194,279Zm0-8a3,3,0,1,0,3,3A3,3,0,0,0,194,271Z" transform="translate(-175 -161)"/><path class="b" d="M422,195a5,5,0,1,1,5-5A5,5,0,0,1,422,195Zm0-8a3,3,0,1,0,3,3A3,3,0,0,0,422,187Z" transform="translate(-175 -161)"/><path class="b" d="M614,315a5,5,0,1,1,5-5A5,5,0,0,1,614,315Zm0-8a3,3,0,1,0,3,3A3,3,0,0,0,614,307Z" transform="translate(-175 -161)"/><path class="b" d="M492,431a3,3,0,1,1,3-3A3,3,0,0,1,492,431Zm0-4a1,1,0,1,0,1,1A1,1,0,0,0,492,427Z" transform="translate(-175 -161)"/><path class="b" d="M608,329a3,3,0,1,1,3-3A3,3,0,0,1,608,329Zm0-4a1,1,0,1,0,1,1A1,1,0,0,0,608,325Z" transform="translate(-175 -161)"/><path class="b" d="M434,185a3,3,0,1,1,3-3A3,3,0,0,1,434,185Zm0-4a1,1,0,1,0,1,1A1,1,0,0,0,434,181Z" transform="translate(-175 -161)"/><path class="b" d="M202,265a3,3,0,1,1,3-3A3,3,0,0,1,202,265Zm0-4a1,1,0,1,0,1,1A1,1,0,0,0,202,261Z" transform="translate(-175 -161)"/><path class="b" d="M250,413a3,3,0,1,1,3-3A3,3,0,0,1,250,413Zm0-4a1,1,0,1,0,1,1A1,1,0,0,0,250,409Z" transform="translate(-175 -161)"/><path class="b" d="M510,426.06a1,1,0,0,1,.88-1.11h0a1,1,0,0,1,1.11.87h0a1,1,0,0,1-.87,1.11H511A1,1,0,0,1,510,426.06Zm-3.15.36a1,1,0,0,1-.59-1.28h0a1,1,0,0,1,1.29-.59h0a1,1,0,0,1,.58,1.29h0a1,1,0,0,1-.93.65h0A0.84,0.84,0,0,1,506.83,426.42Zm6.9-1.27a1,1,0,0,1,.25-1.39h0a1,1,0,0,1,1.39.25h0a1,1,0,0,1-.25,1.39h0a1,1,0,0,1-.57.18h0A1,1,0,0,1,513.73,425.15ZM503.28,424a1,1,0,0,1,.08-1.41h0a1,1,0,0,1,1.41.08h0a1,1,0,0,1-.08,1.41h0a1,1,0,0,1-.66.25h0A1,1,0,0,1,503.28,424Zm13.34-1.39a1,1,0,0,1-.42-1.35h0a1,1,0,0,1,1.35-.42h0a1,1,0,0,1,.42,1.35h0a1,1,0,0,1-.88.53h0A1,1,0,0,1,516.62,422.6Zm-15.35-2.42h0A1,1,0,0,1,502,419h0a1,1,0,0,1,1.21.73h0a1,1,0,0,1-.73,1.21h0l-0.24,0h0A1,1,0,0,1,501.27,420.18ZM517,418h0v0h0a1,1,0,0,1,1-1h0a1,1,0,0,1,1,1h0v0h0v0h0a1,1,0,0,1-1,1h0A1,1,0,0,1,517,418Zm0,0h0Zm-15-.86a1,1,0,0,1-.74-1.21h0a1,1,0,0,1,1.21-.74h0a1,1,0,0,1,.73,1.21h0a1,1,0,0,1-1,.77h0A0.92,0.92,0,0,1,502,417.09Zm14.19-2.39a1,1,0,0,1,.41-1.35h0a1,1,0,0,1,1.35.41h0a1,1,0,0,1-.41,1.35h0a1,1,0,0,1-.47.12h0A1,1,0,0,1,516.18,414.7Zm-12.85-1.23a1,1,0,0,1-.1-1.41h0a1,1,0,0,1,1.41-.09h0a1,1,0,0,1,.09,1.41h0a1,1,0,0,1-.75.34h0A1,1,0,0,1,503.33,413.47Zm10.61-1.26a1,1,0,0,1-.26-1.39h0a1,1,0,0,1,1.38-.26h0a1,1,0,0,1,.27,1.39h0a1,1,0,0,1-.83.44h0A1,1,0,0,1,513.94,412.21Zm-7.75-1.32a1,1,0,0,1,.57-1.29h0a1,1,0,0,1,1.29.57h0a1,1,0,0,1-.58,1.3h0a1.07,1.07,0,0,1-.35.06h0A1,1,0,0,1,506.19,410.89ZM510.8,411a1,1,0,0,1-.88-1.11h0a1,1,0,0,1,1.11-.88h0a1,1,0,0,1,.88,1.11h0a1,1,0,0,1-1,.88H510.8Z" transform="translate(-175 -161)"/><path class="b" d="M343,450a1,1,0,0,1,1-1h0a1,1,0,0,1,1,1h0a1,1,0,0,1-1,1h0A1,1,0,0,1,343,450Zm-3.21.17h0a1,1,0,0,1-.54-1.31h0a1,1,0,0,1,1.31-.54h0a1,1,0,0,1,.54,1.31h0a1,1,0,0,1-.93.62h0A1.09,1.09,0,0,1,339.8,450.17Zm7.11-.55a1,1,0,0,1,.54-1.31h0a1,1,0,0,1,1.31.53h0a1,1,0,0,1-.54,1.31h0a1.08,1.08,0,0,1-.38.08h0A1,1,0,0,1,346.91,449.62Zm-10.68-1.83a1,1,0,0,1,0-1.42h0a1,1,0,0,1,1.42,0h0a1,1,0,0,1,0,1.42h0a1,1,0,0,1-.71.29h0A1,1,0,0,1,336.23,447.79Zm14.14,0a1,1,0,0,1,0-1.41h0a1,1,0,0,1,1.41,0h0a1,1,0,0,1,0,1.41h0a1,1,0,0,1-.7.3h0A1,1,0,0,1,350.37,447.77Zm-16.53-3.54a1,1,0,0,1,.54-1.31h0a1,1,0,0,1,1.31.54h0a1,1,0,0,1-.54,1.31h0a1,1,0,0,1-.38.07h0A1,1,0,0,1,333.84,444.23Zm19,0.52a1,1,0,0,1-.54-1.31h0a1,1,0,0,1,1.3-.54h0a1,1,0,0,1,.55,1.31h0a1,1,0,0,1-.93.61h0A1,1,0,0,1,352.86,444.75ZM333,440a1,1,0,0,1,1-1h0a1,1,0,0,1,1,1h0a1,1,0,0,1-1,1h0A1,1,0,0,1,333,440Zm20,0h0v0h0a1,1,0,0,1,1-1h0a1,1,0,0,1,1,1h0V440h0a1,1,0,0,1-1,1h0A1,1,0,0,1,353,440Zm-18.63-2.88a1,1,0,0,1-.54-1.31h0a1,1,0,0,1,1.3-.54h0a1,1,0,0,1,.54,1.3h0a1,1,0,0,1-.92.62h0A1,1,0,0,1,334.37,437.12Zm17.93-.6a1,1,0,0,1,.54-1.31h0a1,1,0,0,1,1.31.54h0a1,1,0,0,1-.54,1.31h0a1,1,0,0,1-.38.08h0A1,1,0,0,1,352.3,436.52Zm-16.09-2.87a1,1,0,0,1,0-1.41h0a1,1,0,0,1,1.42,0h0a1,1,0,0,1,0,1.41h0a1,1,0,0,1-.71.29h0A1,1,0,0,1,336.21,433.65Zm14.13,0a1,1,0,0,1,0-1.41h0a1,1,0,0,1,1.41,0h0a1,1,0,0,1,0,1.42h0a1,1,0,0,1-.71.29h0A1,1,0,0,1,350.34,433.61Zm-11.12-2.46a1,1,0,0,1,.54-1.3h0a1,1,0,0,1,1.31.53h0a1,1,0,0,1-.54,1.31h0a1,1,0,0,1-.38.08h0A1,1,0,0,1,339.22,431.15Zm8.2,0.52h0a1,1,0,0,1-.55-1.3h0a1,1,0,0,1,1.31-.55h0a1,1,0,0,1,.54,1.31h0a1,1,0,0,1-.92.62h0A1,1,0,0,1,347.42,431.67ZM343,430a1,1,0,0,1,1-1h0a1,1,0,0,1,1,1h0a1,1,0,0,1-1,1h0A1,1,0,0,1,343,430Z" transform="translate(-175 -161)"/><path class="b" d="M410,182.06a1,1,0,0,1,.88-1.11h0a1,1,0,0,1,1.11.87h0a1,1,0,0,1-.87,1.11H411A1,1,0,0,1,410,182.06Zm-3.15.36a1,1,0,0,1-.59-1.28h0a1,1,0,0,1,1.29-.59h0a1,1,0,0,1,.58,1.29h0a1,1,0,0,1-.93.65h0A0.84,0.84,0,0,1,406.83,182.42Zm6.9-1.27a1,1,0,0,1,.25-1.39h0a1,1,0,0,1,1.39.25h0a1,1,0,0,1-.25,1.39h0a1,1,0,0,1-.57.18h0A1,1,0,0,1,413.73,181.15ZM403.28,180a1,1,0,0,1,.08-1.41h0a1,1,0,0,1,1.41.08h0a1,1,0,0,1-.08,1.41h0a1,1,0,0,1-.66.25h0A1,1,0,0,1,403.28,180Zm13.34-1.39a1,1,0,0,1-.42-1.35h0a1,1,0,0,1,1.35-.42h0a1,1,0,0,1,.42,1.35h0a1,1,0,0,1-.88.53h0A1,1,0,0,1,416.62,178.6Zm-15.35-2.42h0A1,1,0,0,1,402,175h0a1,1,0,0,1,1.22.73h0a1,1,0,0,1-.73,1.21h0l-0.24,0h0A1,1,0,0,1,401.27,176.18ZM417,174v-0.05h0a1,1,0,0,1,1-1h0a1,1,0,0,1,1,1h0v0h0v0h0a1,1,0,0,1-1,1h0A1,1,0,0,1,417,174Zm-15-.91a1,1,0,0,1-.74-1.21h0a1,1,0,0,1,1.21-.73h0a1,1,0,0,1,.73,1.2h0a1,1,0,0,1-1,.77h0A0.84,0.84,0,0,1,402,173.09Zm14.19-2.39a1,1,0,0,1,.41-1.35h0a1,1,0,0,1,1.35.41h0a1,1,0,0,1-.41,1.35h0a1,1,0,0,1-.47.12h0A1,1,0,0,1,416.18,170.7Zm-12.85-1.22a1,1,0,0,1-.09-1.42h0a1,1,0,0,1,1.41-.09h0a1,1,0,0,1,.09,1.41h0a1,1,0,0,1-.75.34h0A1,1,0,0,1,403.33,169.48Zm10.61-1.27a1,1,0,0,1-.26-1.39h0a1,1,0,0,1,1.38-.26h0a1,1,0,0,1,.27,1.39h0a1,1,0,0,1-.83.44h0A1,1,0,0,1,413.94,168.21Zm-7.75-1.32a1,1,0,0,1,.57-1.29h0a1,1,0,0,1,1.29.57h0a1,1,0,0,1-.58,1.3h0a1.08,1.08,0,0,1-.36.06h0A1,1,0,0,1,406.19,166.89Zm4.62,0.15a1,1,0,0,1-.88-1.1h0a1,1,0,0,1,1.1-.88h0a1,1,0,0,1,.88,1.1h0a1,1,0,0,1-1,.89h-0.11Z" transform="translate(-175 -161)"/><path class="b" d="M360,455a3,3,0,1,1,3-3A3,3,0,0,1,360,455Zm0-4a1,1,0,1,0,1,1A1,1,0,0,0,360,451Z" transform="translate(-175 -161)"/><path class="b" d="M288,175a3,3,0,1,1,3-3A3,3,0,0,1,288,175Zm0-4a1,1,0,1,0,1,1A1,1,0,0,0,288,171Z" transform="translate(-175 -161)"/><path class="b" d="M580,415a3,3,0,1,1,3-3A3,3,0,0,1,580,415Zm0-4a1,1,0,1,0,1,1A1,1,0,0,0,580,411Z" transform="translate(-175 -161)"/><path class="b" d="M216,195a3,3,0,1,1,3-3A3,3,0,0,1,216,195Zm0-4a1,1,0,1,0,1,1A1,1,0,0,0,216,191Z" transform="translate(-175 -161)"/><path class="b" d="M258,439a1,1,0,0,1-1-1v-4a1,1,0,0,1,2,0v4A1,1,0,0,1,258,439Z" transform="translate(-175 -161)"/><path class="b" d="M260,437h-4a1,1,0,0,1,0-2h4A1,1,0,0,1,260,437Z" transform="translate(-175 -161)"/><path class="b" d="M438,437a1,1,0,0,1-1-1v-4a1,1,0,0,1,2,0v4A1,1,0,0,1,438,437Z" transform="translate(-175 -161)"/><path class="b" d="M440,435h-4a1,1,0,0,1,0-2h4A1,1,0,0,1,440,435Z" transform="translate(-175 -161)"/><path class="b" d="M590,265a1,1,0,0,1-1-1v-4a1,1,0,0,1,2,0v4A1,1,0,0,1,590,265Z" transform="translate(-175 -161)"/><path class="b" d="M592,263h-4a1,1,0,0,1,0-2h4A1,1,0,0,1,592,263Z" transform="translate(-175 -161)"/><path class="b" d="M458,175a1,1,0,0,1-1-1v-4a1,1,0,0,1,2,0v4A1,1,0,0,1,458,175Z" transform="translate(-175 -161)"/><path class="b" d="M460,173h-4a1,1,0,0,1,0-2h4A1,1,0,0,1,460,173Z" transform="translate(-175 -161)"/><path class="b" d="M262,177a1,1,0,0,1-1-1v-4a1,1,0,0,1,2,0v4A1,1,0,0,1,262,177Z" transform="translate(-175 -161)"/><path class="b" d="M264,175h-4a1,1,0,0,1,0-2h4A1,1,0,0,1,264,175Z" transform="translate(-175 -161)"/><path class="b" d="M178,343a1,1,0,0,1-1-1v-4a1,1,0,0,1,2,0v4A1,1,0,0,1,178,343Z" transform="translate(-175 -161)"/><path class="b" d="M180,341h-4a1,1,0,0,1,0-2h4A1,1,0,0,1,180,341Z" transform="translate(-175 -161)"/><path class="b" d="M606,413a1,1,0,0,1-1-1v-4a1,1,0,0,1,2,0v4A1,1,0,0,1,606,413Z" transform="translate(-175 -161)"/><path class="b" d="M608,411h-4a1,1,0,0,1,0-2h4A1,1,0,0,1,608,411Z" transform="translate(-175 -161)"/><path class="b" d="M532,203H522a1,1,0,0,1,0-2h10A1,1,0,0,1,532,203Z" transform="translate(-175 -161)"/><path class="b" d="M310,447h-4a1,1,0,0,1,0-2h4A1,1,0,0,1,310,447Z" transform="translate(-175 -161)"/><path class="b" d="M530,439h-4a1,1,0,0,1,0-2h4A1,1,0,0,1,530,439Z" transform="translate(-175 -161)"/><path class="b" d="M374,163h-4a1,1,0,0,1,0-2h4A1,1,0,0,1,374,163Z" transform="translate(-175 -161)"/><path class="b" d="M568,195h-4a1,1,0,0,1,0-2h4A1,1,0,0,1,568,195Z" transform="translate(-175 -161)"/><path class="b" d="M543.69,198a1,1,0,0,1,1-1h0a1,1,0,0,1,1,1h0a1,1,0,0,1-1,1h0A1,1,0,0,1,543.69,198Zm-4,0a1,1,0,0,1,1-1h0a1,1,0,0,1,1,1h0a1,1,0,0,1-1,1h0A1,1,0,0,1,539.69,198Zm-4,0a1,1,0,0,1,1-1h0a1,1,0,0,1,1,1h0a1,1,0,0,1-1,1h0A1,1,0,0,1,535.69,198Zm-4,0a1,1,0,0,1,1-1h0a1,1,0,0,1,1,1h0a1,1,0,0,1-1,1h0A1,1,0,0,1,531.69,198Zm-4,0a1,1,0,0,1,1-1h0a1,1,0,0,1,1,1h0a1,1,0,0,1-1,1h0A1,1,0,0,1,527.69,198Z" transform="translate(-175 -161)"/></svg>