<?xml version="1.0" encoding="UTF-8" standalone="no"?>
<svg width="100px" height="84px" viewBox="0 0 100 84" version="1.1" xmlns="http://www.w3.org/2000/svg" xmlns:xlink="http://www.w3.org/1999/xlink">
    <!-- Generator: Sketch 39.1 (31720) - http://www.bohemiancoding.com/sketch -->
    <title>Page 1</title>
    <desc>Created with Sketch.</desc>
    <defs></defs>
    <g id="Page-1" stroke="none" stroke-width="1" fill="none" fill-rule="evenodd">
        <g fill="#000000">
            <g id="Group-5" transform="translate(18.000000, 27.721600)">
                <path d="M79.6752,56 L2.1552,56 C1.2992,56 0.6052,55.306 0.6052,54.45 L0.6052,1.736 C0.6052,0.88 1.2992,0.186 2.1552,0.186 L79.6752,0.186 C80.5312,0.186 81.2252,0.88 81.2252,1.736 L81.2252,54.45 C81.2252,55.306 80.5312,56 79.6752,56 L79.6752,56 Z M3.7052,52.9 L78.1252,52.9 L78.1252,3.288 L3.7052,3.288 L3.7052,52.9 Z" id="Fill-1"></path>
                <path d="M40.9152,29.6432 C40.6112,29.6432 40.3072,29.5532 40.0432,29.3752 L1.2832,3.0172 C0.7212,2.6352 0.4732,1.9312 0.6732,1.2792 C0.8732,0.6292 1.4752,0.1852 2.1552,0.1852 L79.6752,0.1852 C80.3552,0.1852 80.9572,0.6292 81.1572,1.2792 C81.3572,1.9312 81.1092,2.6352 80.5472,3.0172 L41.7872,29.3752 C41.5232,29.5532 41.2192,29.6432 40.9152,29.6432 L40.9152,29.6432 Z M7.1932,3.2872 L40.9152,26.2172 L74.6372,3.2872 L7.1932,3.2872 Z" id="Fill-3"></path>
            </g>
            <polygon id="Fill-6" points="0 79.0696 29.458 79.0696 29.458 75.9676 0 75.9676"></polygon>
            <polygon id="Fill-7" points="6.202 72.8696 35.66 72.8696 35.66 69.7696 6.202 69.7696"></polygon>
            <polygon id="Fill-8" points="12.402 66.6676 41.86 66.6676 41.86 63.5676 12.402 63.5676"></polygon>
            <polygon id="Fill-9" points="15.504 6.2016 18.606 6.2016 18.606 0.0016 15.504 0.0016"></polygon>
            <polygon id="Fill-10" points="15.504 21.7056 18.604 21.7056 18.604 15.5036 15.504 15.5036"></polygon>
            <polygon id="Fill-11" points="21.706 12.4036 27.908 12.4036 27.908 9.3036 21.706 9.3036"></polygon>
            <polygon id="Fill-12" points="6.202 12.4036 12.404 12.4036 12.404 9.3036 6.202 9.3036"></polygon>
            <polygon id="Fill-13" points="23.6326 19.6236 19.2466 15.2376 21.4386 13.0456 25.8246 17.4316"></polygon>
            <polygon id="Fill-14" points="12.6698 8.6608 8.2838 4.2748 10.4758 2.0828 14.8618 6.4688"></polygon>
            <polygon id="Fill-15" points="10.4762 19.6236 8.2842 17.4316 12.6702 13.0456 14.8622 15.2376"></polygon>
            <polygon id="Fill-16" points="21.439 8.6608 19.247 6.4688 23.633 2.0828 25.825 4.2748"></polygon>
            <polygon id="Fill-17" points="93.024 34.1096 96.124 34.1096 96.124 31.0096 93.024 31.0096"></polygon>
            <polygon id="Fill-18" points="89.924 37.2096 93.024 37.2096 93.024 34.1096 89.924 34.1096"></polygon>
            <polygon id="Fill-19" points="86.824 40.3096 89.924 40.3096 89.924 37.2096 86.824 37.2096"></polygon>
            <polygon id="Fill-20" points="93.024 40.3096 96.124 40.3096 96.124 37.2096 93.024 37.2096"></polygon>
            <polygon id="Fill-21" points="83.722 43.4116 86.822 43.4116 86.822 40.3116 83.722 40.3116"></polygon>
            <polygon id="Fill-22" points="89.924 43.4116 93.024 43.4116 93.024 40.3116 89.924 40.3116"></polygon>
            <polygon id="Fill-23" points="80.622 46.5116 83.722 46.5116 83.722 43.4116 80.622 43.4116"></polygon>
            <polygon id="Fill-24" points="86.824 46.5116 89.924 46.5116 89.924 43.4116 86.824 43.4116"></polygon>
            <polygon id="Fill-25" points="93.024 46.5116 96.124 46.5116 96.124 43.4116 93.024 43.4116"></polygon>
            <polygon id="Fill-26" points="83.722 49.6136 86.822 49.6136 86.822 46.5136 83.722 46.5136"></polygon>
            <polygon id="Fill-27" points="89.924 49.6136 93.024 49.6136 93.024 46.5136 89.924 46.5136"></polygon>
            <polygon id="Fill-28" points="80.622 52.7136 83.722 52.7136 83.722 49.6136 80.622 49.6136"></polygon>
            <polygon id="Fill-29" points="86.824 52.7136 89.924 52.7136 89.924 49.6136 86.824 49.6136"></polygon>
            <polygon id="Fill-30" points="93.024 52.7136 96.124 52.7136 96.124 49.6136 93.024 49.6136"></polygon>
            <polygon id="Fill-31" points="83.722 55.8136 86.822 55.8136 86.822 52.7136 83.722 52.7136"></polygon>
            <polygon id="Fill-32" points="89.924 55.8136 93.024 55.8136 93.024 52.7136 89.924 52.7136"></polygon>
            <polygon id="Fill-33" points="80.622 58.9156 83.722 58.9156 83.722 55.8156 80.622 55.8156"></polygon>
            <polygon id="Fill-34" points="86.824 58.9156 89.924 58.9156 89.924 55.8156 86.824 55.8156"></polygon>
            <polygon id="Fill-35" points="93.024 58.9156 96.124 58.9156 96.124 55.8156 93.024 55.8156"></polygon>
            <polygon id="Fill-36" points="83.722 62.0156 86.822 62.0156 86.822 58.9156 83.722 58.9156"></polygon>
            <polygon id="Fill-37" points="89.924 62.0156 93.024 62.0156 93.024 58.9156 89.924 58.9156"></polygon>
            <polygon id="Fill-38" points="80.622 65.1176 83.722 65.1176 83.722 62.0176 80.622 62.0176"></polygon>
            <polygon id="Fill-39" points="86.824 65.1176 89.924 65.1176 89.924 62.0176 86.824 62.0176"></polygon>
            <polygon id="Fill-40" points="93.024 65.1176 96.124 65.1176 96.124 62.0176 93.024 62.0176"></polygon>
            <polygon id="Fill-41" points="83.722 68.2176 86.822 68.2176 86.822 65.1176 83.722 65.1176"></polygon>
            <polygon id="Fill-42" points="89.924 68.2176 93.024 68.2176 93.024 65.1176 89.924 65.1176"></polygon>
            <polygon id="Fill-43" points="80.622 71.3176 83.722 71.3176 83.722 68.2176 80.622 68.2176"></polygon>
            <polygon id="Fill-44" points="86.824 71.3176 89.924 71.3176 89.924 68.2176 86.824 68.2176"></polygon>
            <polygon id="Fill-45" points="93.024 71.3176 96.124 71.3176 96.124 68.2176 93.024 68.2176"></polygon>
            <polygon id="Fill-46" points="83.722 74.4196 86.822 74.4196 86.822 71.3196 83.722 71.3196"></polygon>
            <polygon id="Fill-47" points="89.924 74.4196 93.024 74.4196 93.024 71.3196 89.924 71.3196"></polygon>
            <polygon id="Fill-48" points="80.622 77.5196 83.722 77.5196 83.722 74.4196 80.622 74.4196"></polygon>
            <polygon id="Fill-49" points="86.824 77.5196 89.924 77.5196 89.924 74.4196 86.824 74.4196"></polygon>
            <polygon id="Fill-50" points="93.024 77.5196 96.124 77.5196 96.124 74.4196 93.024 74.4196"></polygon>
            <polygon id="Fill-51" points="83.722 80.6216 86.822 80.6216 86.822 77.5216 83.722 77.5216"></polygon>
            <polygon id="Fill-52" points="89.924 80.6216 93.024 80.6216 93.024 77.5216 89.924 77.5216"></polygon>
        </g>
    </g>
</svg>