<?xml version="1.0" encoding="UTF-8" standalone="no"?>
<svg width="100px" height="100px" viewBox="0 0 100 100" version="1.1" xmlns="http://www.w3.org/2000/svg" xmlns:xlink="http://www.w3.org/1999/xlink">
    <!-- Generator: Sketch 39.1 (31720) - http://www.bohemiancoding.com/sketch -->
    <title>Page 1</title>
    <desc>Created with Sketch.</desc>
    <defs>
        <polygon id="path-1" points="0 92 0 0.5264 97.6756 0.5264 97.6756 92"></polygon>
    </defs>
    <g id="Page-1" stroke="none" stroke-width="1" fill="none" fill-rule="evenodd">
        <g transform="translate(0.000000, 2.000000)">
            <g id="Group-3" transform="translate(0.000000, 5.000000)">
                <mask id="mask-2" fill="white">
                    <use xlink:href="#path-1"></use>
                </mask>
                <g id="Clip-2"></g>
                <path d="M91.4736,78.0464 L91.4736,6.7284 L18.6056,34.6344 L4.6516,27.1504 L4.6516,57.7804 L18.6056,50.1384 L91.4736,78.0464 L91.4736,78.0464 Z M91.4736,50.1384 L91.4736,50.1384 L91.4736,34.6344 C94.8976,34.6344 97.6756,37.4124 97.6756,40.8364 L97.6756,43.9384 C97.6756,47.3624 94.8976,50.1384 91.4736,50.1384 L91.4736,50.1384 Z M31.3716,64.0924 L24.8056,64.0924 L24.8056,59.9884 L18.2396,59.9884 L18.2396,50.1384 L31.3716,55.0624 L31.3716,64.0924 L31.3716,64.0924 Z M37.2096,17.5804 L43.4116,11.3784 L43.4116,17.5804 L49.6136,11.3784 L37.2096,17.5804 Z M32.5576,6.7284 L38.7596,0.5264 L38.7596,6.7284 L44.9616,0.5264 L32.5576,6.7284 Z M20.1556,19.1304 L26.3576,12.9304 L26.3576,19.1304 L32.5576,12.9304 L20.1556,19.1304 Z M60.4656,37.7364 C62.8876,40.1584 62.8876,44.6164 60.4656,47.0384 L60.4656,37.7364 Z M66.6676,33.0844 C71.5116,37.9284 71.5116,46.8464 66.6676,51.6904 L66.6676,33.0844 Z M72.8696,27.6584 C80.5396,35.3284 80.5396,49.4464 72.8696,57.1164 L72.8696,27.6584 Z M-0.0004,64.0924 L18.6056,64.0924 L18.6056,59.4424 L24.8056,59.4424 L24.8056,64.0924 L35.6596,64.0924 L35.6596,82.6984 L-0.0004,82.6984 L-0.0004,64.0924 Z M31.0076,68.7444 L35.6596,68.7444 L31.0076,68.7444 Z M31.0076,73.3944 L35.6596,73.3944 L31.0076,73.3944 Z M31.0076,78.0464 L35.6596,78.0464 L31.0076,78.0464 Z M60.4656,73.3944 L60.4656,79.5964 L60.4656,73.3944 Z M60.4656,85.7984 L60.4656,92.0004 L60.4656,85.7984 Z M69.7676,82.6984 L63.5656,82.6984 L69.7676,82.6984 Z M57.3656,82.6984 L51.1636,82.6984 L57.3656,82.6984 Z" id="Stroke-1" stroke="#000000" stroke-width="3" stroke-linejoin="round" mask="url(#mask-2)"></path>
            </g>
            <polygon id="Fill-4" fill="#000000" points="47 57 50 57 50 54 47 54"></polygon>
            <polygon id="Fill-5" fill="#000000" points="40 57 43 57 43 54 40 54"></polygon>
            <polygon id="Fill-6" fill="#000000" points="34 57 37 57 37 54 34 54"></polygon>
            <polygon id="Fill-7" fill="#000000" points="53 63 56 63 56 60 53 60"></polygon>
            <polygon id="Fill-8" fill="#000000" points="53 57 56 57 56 54 53 54"></polygon>
            <polygon id="Fill-9" fill="#000000" points="47 63 50 63 50 60 47 60"></polygon>
            <polygon id="Fill-10" fill="#000000" points="28 57 31 57 31 54 28 54"></polygon>
            <polygon id="Fill-11" fill="#000000" points="47 51 50 51 50 48 47 48"></polygon>
            <polygon id="Fill-12" fill="#000000" points="40 51 43 51 43 48 40 48"></polygon>
            <polygon id="Fill-13" fill="#000000" points="65 63 68 63 68 60 65 60"></polygon>
            <polygon id="Fill-14" fill="#000000" points="59 63 62 63 62 60 59 60"></polygon>
            <polygon id="Fill-15" fill="#000000" points="65 69 68 69 68 66 65 66"></polygon>
            <polygon id="Fill-16" fill="#000000" points="34 51 37 51 37 48 34 48"></polygon>
            <polygon id="Fill-17" fill="#000000" points="28 51 31 51 31 48 28 48"></polygon>
            <path d="M84.4445718,0 L100,0 M71.9994267,6.19399942 L87.5548548,6.19399942 M84.4445718,91.3559985 L100,91.3559985 M71.9994267,96 L78.2219993,96 M2,7.74199992 L9.77771408,0 M2,0 L9.77771408,7.74199992" id="Stroke-18" stroke="#000000" stroke-width="3" stroke-linejoin="round"></path>
        </g>
    </g>
</svg>