<?xml version="1.0" encoding="UTF-8" standalone="no"?>
<svg width="100px" height="90px" viewBox="0 0 100 90" version="1.1" xmlns="http://www.w3.org/2000/svg" xmlns:xlink="http://www.w3.org/1999/xlink">
    <!-- Generator: Sketch 39.1 (31720) - http://www.bohemiancoding.com/sketch -->
    <title>Page 1</title>
    <desc>Created with Sketch.</desc>
    <defs></defs>
    <g id="Page-1" stroke="none" stroke-width="1" fill="none" fill-rule="evenodd">
        <g fill="#000000">
            <path d="M71.3184,89.9232 L27.9064,89.9232 C24.4884,89.9232 21.7064,87.1412 21.7064,83.7212 L24.8064,83.7212 C24.8064,85.4312 26.1984,86.8232 27.9064,86.8232 L71.3184,86.8232 C73.0284,86.8232 74.4184,85.4312 74.4184,83.7212 L74.4184,6.2012 C74.4184,4.4912 73.0284,3.1012 71.3184,3.1012 L27.9064,3.1012 C26.1984,3.1012 24.8064,4.4912 24.8064,6.2012 L21.7064,6.2012 C21.7064,2.7812 24.4884,-0.0008 27.9064,-0.0008 L71.3184,-0.0008 C74.7384,-0.0008 77.5204,2.7812 77.5204,6.2012 L77.5204,83.7212 C77.5204,87.1412 74.7384,89.9232 71.3184,89.9232" id="Fill-1"></path>
            <polygon id="Fill-3" points="29.458 18.6052 75.97 18.6052 75.97 15.5052 29.458 15.5052"></polygon>
            <polygon id="Fill-4" points="37.21 74.4192 75.97 74.4192 75.97 71.3192 37.21 71.3192"></polygon>
            <polygon id="Fill-5" points="44.962 82.1712 54.264 82.1712 54.264 79.0712 44.962 79.0712"></polygon>
            <polygon id="Fill-6" points="48.062 10.8532 57.364 10.8532 57.364 7.7532 48.062 7.7532"></polygon>
            <polygon id="Fill-7" points="41.862 10.8532 44.962 10.8532 44.962 7.7532 41.862 7.7532"></polygon>
            <polygon id="Fill-8" points="21.706 62.0152 24.806 62.0152 24.806 40.3092 21.706 40.3092"></polygon>
            <g id="Group-15" transform="translate(34.000000, 27.923200)">
                <path d="M15.6128,18.5888 C13.0488,18.5888 10.9608,16.5028 10.9608,13.9368 C10.9608,11.3728 13.0488,9.2868 15.6128,9.2868 C18.1768,9.2868 20.2648,11.3728 20.2648,13.9368 C20.2648,16.5028 18.1768,18.5888 15.6128,18.5888 M15.6128,12.3868 C14.7588,12.3868 14.0628,13.0828 14.0628,13.9368 C14.0628,14.7928 14.7588,15.4888 15.6128,15.4888 C16.4668,15.4888 17.1628,14.7928 17.1628,13.9368 C17.1628,13.0828 16.4668,12.3868 15.6128,12.3868" id="Fill-9"></path>
                <path d="M21.7754,28.819 C21.4614,25.639 18.8114,23.241 15.6134,23.241 C12.4134,23.241 9.7654,25.639 9.4494,28.819 L6.3654,28.513 C6.8374,23.739 10.8114,20.139 15.6134,20.139 C20.4134,20.139 24.3894,23.739 24.8614,28.513 L21.7754,28.819 Z" id="Fill-11"></path>
                <path d="M15.6128,32.5424 C7.0648,32.5424 0.1088,25.5864 0.1088,17.0384 C0.1088,8.4904 7.0648,1.5344 15.6128,1.5344 C24.1608,1.5344 31.1168,8.4904 31.1168,17.0384 C31.1168,25.5864 24.1608,32.5424 15.6128,32.5424 M15.6128,4.6344 C8.7728,4.6344 3.2088,10.1984 3.2088,17.0384 C3.2088,23.8784 8.7728,29.4424 15.6128,29.4424 C22.4528,29.4424 28.0168,23.8784 28.0168,17.0384 C28.0168,10.1984 22.4528,4.6344 15.6128,4.6344" id="Fill-13"></path>
            </g>
            <polygon id="Fill-16" points="93.024 40.3112 96.124 40.3112 96.124 37.2112 93.024 37.2112"></polygon>
            <path d="M86.824,40.3112 L89.924,40.3112 L89.924,37.2112 L86.824,37.2112 L86.824,40.3112 Z M80.622,40.3112 L83.722,40.3112 L83.722,37.2112 L80.622,37.2112 L80.622,40.3112 Z M74.42,40.3112 L77.52,40.3112 L77.52,37.2112 L74.42,37.2112 L74.42,40.3112 Z" id="Fill-17"></path>
            <polygon id="Fill-18" points="68.218 40.3112 71.318 40.3112 71.318 37.2112 68.218 37.2112"></polygon>
            <polygon id="Fill-19" points="68.218 34.1092 71.318 34.1092 71.318 31.0092 68.218 31.0092"></polygon>
            <polygon id="Fill-20" points="68.218 27.9072 71.318 27.9072 71.318 24.8072 68.218 24.8072"></polygon>
            <path d="M86.824,27.9072 L89.924,27.9072 L89.924,24.8072 L86.824,24.8072 L86.824,27.9072 Z M80.622,27.9072 L83.722,27.9072 L83.722,24.8072 L80.622,24.8072 L80.622,27.9072 Z M74.42,27.9072 L77.52,27.9072 L77.52,24.8072 L74.42,24.8072 L74.42,27.9072 Z" id="Fill-21"></path>
            <polygon id="Fill-22" points="93.024 27.9072 96.124 27.9072 96.124 24.8072 93.024 24.8072"></polygon>
            <polygon id="Fill-23" points="93.024 34.1092 96.124 34.1092 96.124 31.0092 93.024 31.0092"></polygon>
            <path d="M3.1,37.2092 L31.008,37.2092 L31.008,9.3012 L3.1,9.3012 L3.1,37.2092 Z M6.202,34.1092 L27.908,34.1092 L27.908,12.4032 L6.202,12.4032 L6.202,34.1092 Z" id="Fill-24"></path>
            <polygon id="Fill-25" points="9.302 24.8072 24.806 24.8072 24.806 21.7072 9.302 21.7072"></polygon>
            <polygon id="Fill-26" points="9.302 31.0072 17.054 31.0072 17.054 27.9072 9.302 27.9072"></polygon>
            <polygon id="Fill-27" points="9.302 18.6052 24.806 18.6052 24.806 15.5052 9.302 15.5052"></polygon>
            <polygon id="Fill-28" points="12.404 62.0152 15.504 62.0152 15.504 58.9152 12.404 58.9152"></polygon>
            <polygon id="Fill-29" points="6.202 62.0152 9.302 62.0152 9.302 58.9152 6.202 58.9152"></polygon>
            <polygon id="Fill-30" points="0 62.0152 3.102 62.0152 3.102 58.9132 0 58.9132"></polygon>
            <polygon id="Fill-31" points="0 55.8152 3.102 55.8152 3.102 52.7132 0 52.7132"></polygon>
            <polygon id="Fill-32" points="0 49.6112 3.102 49.6112 3.102 46.5112 0 46.5112"></polygon>
            <polygon id="Fill-33" points="6.202 49.6132 9.302 49.6132 9.302 46.5132 6.202 46.5132"></polygon>
            <polygon id="Fill-34" points="12.404 49.6132 15.504 49.6132 15.504 46.5132 12.404 46.5132"></polygon>
            <polygon id="Fill-35" points="12.404 55.8152 15.504 55.8152 15.504 52.7152 12.404 52.7152"></polygon>
            <path d="M3.1,80.6212 L38.76,80.6212 L38.76,65.1172 L3.1,65.1172 L3.1,80.6212 Z M6.202,77.5192 L35.66,77.5192 L35.66,68.2172 L6.202,68.2172 L6.202,77.5192 Z" id="Fill-36"></path>
            <polygon id="Fill-37" points="12.404 74.4192 29.458 74.4192 29.458 71.3192 12.404 71.3192"></polygon>
            <polygon id="Fill-38" points="80.622 13.9532 89.924 13.9532 89.924 10.8532 80.622 10.8532"></polygon>
            <polygon id="Fill-39" points="80.62 7.7512 96.124 7.7512 96.124 4.6512 80.62 4.6512"></polygon>
            <path d="M80.62,74.4192 L99.224,74.4192 L99.224,55.8152 L80.62,55.8152 L80.62,74.4192 Z M83.722,71.3192 L96.126,71.3192 L96.126,58.9152 L83.722,58.9152 L83.722,71.3192 Z" id="Fill-40"></path>
            <polygon id="Fill-41" points="88.374 66.6672 91.474 66.6672 91.474 63.5672 88.374 63.5672"></polygon>
        </g>
    </g>
</svg>